<svg width="160" height="131" viewBox="0 0 160 131" fill="none" xmlns="http://www.w3.org/2000/svg">
<g clip-path="url(#clip0)">
<path opacity="0.1" d="M156.11 75.9397C156.11 76.0392 156.11 76.1387 156.11 76.2366C156.092 77.9527 155.991 79.6645 155.805 81.372C155.806 81.3823 155.806 81.3927 155.805 81.403C155.791 81.5449 155.774 81.6852 155.758 81.8271C155.73 82.0669 155.701 82.3051 155.668 82.5449C155.289 85.4639 154.661 88.3449 153.791 91.1567V91.1567C152.627 94.9561 150.98 98.5899 148.892 101.969C148.249 103.002 147.565 104.002 146.839 104.969C146.452 105.481 146.056 105.982 145.647 106.475C145.361 106.82 145.069 107.159 144.772 107.493L144.586 107.698C143.021 109.42 141.335 111.026 139.54 112.504C136.61 114.938 133.455 117.056 130.249 119.02C130.067 119.132 129.883 119.243 129.699 119.346C129.686 119.355 129.673 119.363 129.659 119.37C125.302 122.01 120.785 124.392 116.131 126.299C111.036 128.392 105.775 129.914 100.377 130.579C92.8528 131.506 85.2377 130.752 77.7594 129.457C71.5398 128.386 65.3955 126.915 59.3647 125.052L58.3717 124.741C57.8573 124.576 57.3434 124.409 56.8301 124.238C53.7296 123.21 50.6638 122.069 47.6327 120.812C40.0201 117.67 32.7476 113.757 25.9286 109.134C25.0604 108.549 24.2047 107.951 23.3614 107.339C22.1829 106.489 21.0184 105.613 19.8681 104.713L19.1583 104.162C16.1479 101.799 13.3273 99.2034 10.7228 96.3981C7.21966 92.5775 4.22604 88.2676 2.25796 83.3475C1.94759 82.5743 1.66326 81.7863 1.40497 80.9837L1.38055 80.9038C1.25032 80.496 1.12986 80.0881 1.01917 79.664C0.856382 79.0571 0.713674 78.4427 0.591043 77.8206C0.564997 77.7015 0.542207 77.5824 0.521045 77.4617C0.13197 75.3682 -0.0398701 73.2399 0.0082714 71.111C0.0489848 69.2456 0.267018 67.3884 0.659412 65.5645V65.5645C1.06104 63.6738 1.67995 61.8361 2.50377 60.0881V60.0881C3.24825 58.5164 4.19683 57.0502 5.32484 55.7276V55.7276C6.11748 54.8029 7.0089 53.9682 7.98312 53.2382C9.74934 51.9201 11.7076 51.0017 13.7376 50.2757C14.6915 49.9332 15.6584 49.633 16.6303 49.354C17.3189 49.155 18.0107 48.9658 18.6993 48.7798L20.7308 48.2301C22.0331 47.8744 23.3354 47.509 24.6181 47.1142C28.1148 46.0441 31.5414 44.7488 34.7108 42.8173C35.2122 42.5123 35.7234 42.1779 36.2345 41.819C36.8856 41.3655 37.527 40.8728 38.1619 40.341C38.8033 39.8026 39.4316 39.2268 40.0307 38.6167C40.1234 38.5221 40.2146 38.4274 40.3058 38.3312C40.7941 37.8157 41.2678 37.2757 41.7073 36.7146C41.9222 36.4405 42.1306 36.1615 42.3292 35.8777C42.6043 35.4845 42.8647 35.0849 43.1057 34.6738C44.3135 32.6183 45.0591 30.3508 44.9712 27.9609C44.9583 27.5671 44.923 27.1744 44.8654 26.7847C44.6538 25.3442 44.4503 23.938 44.3005 22.5628C43.6722 16.8744 43.9375 11.7162 48.1976 6.86953C53.4946 0.845056 61.8081 -0.38333 69.3759 0.0979104C91.2559 1.48453 111.174 14.0033 128.679 28.907C130.193 30.1947 131.688 31.4998 133.165 32.8222C133.537 33.155 133.91 33.49 134.283 33.8271C137.051 36.3247 139.776 38.9152 142.314 41.6901C142.519 41.9152 142.724 42.1403 142.926 42.3671C143.049 42.5074 143.175 42.646 143.297 42.788C144.088 43.6852 144.856 44.6042 145.6 45.5449C147.594 48.0423 149.356 50.7181 150.861 53.5384C153.167 57.9645 154.728 62.7416 155.481 67.677V67.677C155.764 69.4693 155.951 71.2757 156.04 73.0881C156.067 73.6216 156.085 74.1567 156.095 74.6901C156.095 74.8614 156.095 75.031 156.095 75.2023C156.111 75.4503 156.111 75.6917 156.11 75.9397Z" fill="#175190"/>
<path d="M64.1342 73.2039L61.5297 119.662L64.1342 119.697L66.2504 72.5514L64.1342 73.2039Z" fill="#3F3D56"/>
<path d="M54.5299 96.7422H22.2985V103.757H54.5299V96.7422Z" fill="#175190"/>
<path d="M56.6461 102.94V107.344H23.3516C22.1731 106.494 21.0086 105.618 19.8583 104.718V102.94H56.6461Z" fill="#3F3D56"/>
<path d="M63.2943 92.9152C63.2031 93.3377 63.0843 93.7553 62.9589 94.1713C62.5894 95.3736 62.145 96.5595 62.0587 97.8091C61.9432 99.46 62.3843 101.38 61.2448 102.579C60.9518 102.889 60.5692 103.121 60.3072 103.452C60.2668 103.504 60.2298 103.558 60.1965 103.615C59.9621 104.003 59.9344 104.476 59.9311 104.92C59.9339 105.866 59.9953 106.812 60.1151 107.75C60.5009 110.98 61.2627 114.217 60.2616 117.266C60.0802 117.795 59.8688 118.313 59.6283 118.817C59.14 119.894 58.6077 120.956 58.4482 122.122C58.331 122.987 58.3668 123.878 58.3603 124.757C57.8459 124.593 57.332 124.425 56.8187 124.254C53.7182 123.227 50.6524 122.085 47.6213 120.829C47.6294 120.785 47.6376 120.739 47.6441 120.695C47.8769 119.243 47.5578 117.759 47.1704 116.343C46.3565 113.343 45.2039 110.372 44.5219 107.351C44.2472 106.171 44.067 104.971 43.9831 103.762C43.9635 103.491 43.9521 103.219 43.9505 102.946C43.9424 102.591 43.9505 102.235 43.9652 101.876C43.9993 101.16 44.0303 100.31 43.4589 99.8744C43.1447 99.6378 42.7296 99.5971 42.3633 99.4535C41.6569 99.1778 41.1734 98.5383 40.6134 98.0261C40.3463 97.7664 40.0201 97.5758 39.6631 97.4706C39.306 97.3655 38.9288 97.3489 38.5639 97.4225C34.9045 98.2626 32.2153 101.374 28.8098 102.946C28.678 103.008 28.5461 103.067 28.4127 103.122C27.9721 103.284 27.5529 103.499 27.1641 103.762C26.8909 103.952 26.6928 104.232 26.6041 104.553C26.5178 104.899 26.5927 105.261 26.635 105.617C26.7035 106.195 26.6788 106.78 26.5618 107.351C26.5176 107.572 26.4595 107.79 26.3876 108.003C26.2574 108.39 26.0832 108.768 25.9172 109.145C25.049 108.56 24.1933 107.962 23.35 107.351C22.1715 106.5 21.007 105.625 19.8567 104.724L19.1583 104.162C16.1478 101.799 13.3273 99.2033 10.7228 96.398C11.0695 95.4192 11.5709 94.509 11.8118 93.5057C11.9486 92.9298 11.999 92.3312 12.1878 91.7716C12.4056 91.1915 12.7085 90.6472 13.0864 90.1566C14.4707 88.2221 16.1609 86.5271 18.0904 85.1387C20.1073 83.69 22.4368 82.5285 24.2519 80.8842C24.9884 80.2379 25.6234 79.4839 26.1353 78.6476C26.1662 78.597 26.1955 78.5432 26.2216 78.4845C26.3632 78.1892 26.4614 77.8749 26.5129 77.5514C26.6432 76.8205 26.6236 76.0179 26.6888 75.3165C28.8998 75.7 31.154 75.7681 33.3841 75.5187C35.9805 75.2267 38.52 74.5041 41.1164 74.2235C41.3118 74.2006 41.5087 74.1827 41.7057 74.1664C42.5375 74.0995 43.371 74.0848 44.2061 74.0946C44.9044 74.0946 45.6028 74.1256 46.3011 74.1484L53.9895 74.4094C54.8408 74.4388 55.7101 74.4714 56.5029 74.783C57.4438 75.1533 58.1975 75.8907 58.8014 76.7015C58.8779 76.8059 58.9544 76.9103 59.026 77.0179C59.523 77.7444 59.9215 78.5338 60.2111 79.3654C60.2421 79.4502 60.2713 79.5285 60.299 79.6215C60.3723 79.8483 60.4358 80.0767 60.4927 80.3083C60.5367 80.4894 60.5758 80.6705 60.6116 80.8532C60.7906 81.7569 60.8965 82.6802 61.1797 83.553C61.1992 83.6166 61.2204 83.6803 61.2432 83.7422C61.5834 84.6982 62.1483 85.5546 62.5748 86.4731C62.8823 87.1379 63.117 87.8342 63.2747 88.5497C63.5936 89.9866 63.6002 91.4755 63.2943 92.9152V92.9152Z" fill="#35323E"/>
<path d="M39.9248 34.5351C39.2378 33.987 38.2416 34.3883 37.4374 34.7423C36.7632 35.0407 36.0691 35.292 35.3603 35.4943C35.2152 35.5502 35.0579 35.5666 34.9045 35.5416C34.5789 35.4633 34.4422 35.0767 34.1996 34.8418C33.778 34.4356 33.0878 34.5318 32.5441 34.752C32.0004 34.9723 31.4632 35.2904 30.8804 35.2414C30.2586 35.1925 29.7181 34.7325 29.0898 34.7178C27.9828 34.6917 27.0533 36.0587 26.0066 35.6966C25.3685 35.4763 24.8671 34.6444 24.2388 34.8809C23.7504 35.0669 23.7065 35.7439 23.4118 36.186C23.0651 36.7015 22.3895 36.8467 21.8117 37.075C19.9901 37.7961 18.7839 39.8303 19.0215 41.7781C19.1534 42.8532 19.6727 43.8385 20.0161 44.8646C21.0352 47.8483 20.6852 51.2137 21.9696 54.0914C22.1323 53.938 22.2235 53.8809 22.3814 53.7292C21.9753 54.5733 21.897 55.5385 22.1616 56.4372C22.2968 56.8891 22.5165 57.31 22.6826 57.7521C22.855 58.2479 22.9943 58.7547 23.0993 59.2692L24.5155 65.5302C25.069 67.9772 25.6241 70.4242 25.7201 72.9299C25.7799 74.5592 25.6554 76.19 25.349 77.7912C27.9145 77.3654 30.2618 76.2251 32.8615 76.2398C33.8154 76.2398 34.7612 76.403 35.707 76.5335C38.4645 76.9202 41.2459 77.1093 44.0302 77.0995C44.4633 77.1242 44.8969 77.0633 45.3065 76.9201C45.6646 76.7667 45.9576 76.4943 46.2962 76.2969C46.9587 75.9054 47.7613 75.8075 48.5247 75.8075C52.0067 75.7439 55.3617 77.0212 58.8209 77.4715C60.1867 74.5987 60.268 71.1566 59.2197 68.1534C58.9088 67.261 58.4904 66.3915 58.3667 65.4535C58.317 64.8769 58.304 64.2977 58.3276 63.7194C58.3222 62.239 58.0561 60.7711 57.5414 59.3834C57.3395 58.8401 57.097 58.2871 57.1182 57.708C57.1393 57.1289 57.4242 56.5889 57.7042 56.0767C58.2723 55.0326 58.8437 53.9788 59.6462 53.0979C60.4683 52.1876 61.4971 51.4943 62.5145 50.814L65.0263 49.124C64.6828 46.9494 64.24 44.6591 63.3203 42.6591C62.4005 40.6591 61.025 38.8206 59.1644 37.6509C58.537 37.2727 57.8806 36.9454 57.2012 36.6721C56.2505 36.2708 55.2608 35.9168 54.2303 35.8564C53.0583 35.7896 51.9041 36.1044 50.7467 36.3002C47.1036 36.9152 42.8158 36.8401 39.9248 34.5351Z" fill="#175190"/>
<path d="M67.39 72.2707L66.1951 73.783L63.9422 76.6329L61.3376 79.9265L60.61 80.8466H59.1986L24.2503 80.8874L2.36381 80.9118H1.38709C1.25687 80.504 1.1364 80.0962 1.02571 79.672C0.862925 79.0652 0.720217 78.4507 0.597586 77.8286C0.57154 77.7096 0.54875 77.5905 0.527588 77.4698L8.46825 72.2675L11.4537 72.2512L20.586 72.199L25.686 72.1696H26.6172H27.2016L30.6005 72.1517L56.5062 72.0032L57.8312 71.9951H58.4059L59.9279 71.9869L65.5912 71.9543L66.6786 71.5399L66.7584 71.6247L67.39 72.2707Z" fill="#3F3D56"/>
<path d="M66.9016 71.4551L66.7665 71.6182L65.8777 72.6672L64.048 74.8319L60.2111 79.3654L26.2216 78.4959L0.591043 77.8433C0.564997 77.7243 0.542207 77.6052 0.521045 77.4845C0.13197 75.3909 -0.0398701 73.2627 0.0082714 71.1337L2.8505 69.6753L3.50164 69.3393L8.56915 66.7292L13.0164 64.4453L24.6165 65.9559L27.1853 66.2903L28.3476 66.4404L30.0487 66.6623L30.1919 66.6819L56.8675 70.1484L59.8156 70.5318L61.546 70.7569L66.8788 71.4518L66.9016 71.4551Z" fill="#504F60"/>
<path d="M61.3669 79.2855L61.3392 79.9266L61.1764 83.5465L60.3006 103.449L60.115 107.75L59.6267 118.817L59.3516 125.069L58.3586 124.757C57.8442 124.593 57.3303 124.425 56.817 124.255L59.1986 80.8614L59.249 79.9511L60.2974 79.6248L61.3669 79.2855Z" fill="#3F3D56"/>
<path d="M2.43865 79.2382L2.3654 80.9135L2.25796 83.3605C1.94758 82.5873 1.66325 81.7993 1.40497 80.9967L1.38055 80.9168C1.25032 80.509 1.12986 80.1011 1.01917 79.677L2.43865 79.2382Z" fill="#3F3D56"/>
<path d="M45.007 54.5726C49.1426 54.5726 52.4952 50.0443 52.4952 44.4584C52.4952 38.8725 49.1426 34.3442 45.007 34.3442C40.8715 34.3442 37.5189 38.8725 37.5189 44.4584C37.5189 50.0443 40.8715 54.5726 45.007 54.5726Z" fill="#A1616A"/>
<path opacity="0.1" d="M45.007 54.5726C49.1426 54.5726 52.4952 50.0443 52.4952 44.4584C52.4952 38.8725 49.1426 34.3442 45.007 34.3442C40.8715 34.3442 37.5189 38.8725 37.5189 44.4584C37.5189 50.0443 40.8715 54.5726 45.007 54.5726Z" fill="black"/>
<path d="M46.0651 48.7814C51.819 48.7814 56.4834 44.107 56.4834 38.3409C56.4834 32.5748 51.819 27.9005 46.0651 27.9005C40.3113 27.9005 35.6469 32.5748 35.6469 38.3409C35.6469 44.107 40.3113 48.7814 46.0651 48.7814Z" fill="#A1616A"/>
<path d="M46.2718 22.2496C45.6357 22.3004 45.0041 22.3969 44.3819 22.5384C42.7345 22.9397 41.3101 23.8304 39.9232 24.7048C39.3013 25.0979 38.6616 25.5074 38.2758 26.0849C37.5823 27.1207 37.8509 28.4389 37.4619 29.5889C37.26 30.1795 36.8889 30.7097 36.5747 31.2594C35.7103 32.7667 35.2577 34.4225 34.8133 36.062C34.7222 36.4013 34.6961 36.8614 35.0657 36.9919C35.2784 37.0362 35.4998 37.011 35.6973 36.9201C36.8644 36.5335 38.3474 36.4225 39.2134 37.2072C40.0794 37.9919 40.0062 39.3834 41.0366 39.9805C42.2168 40.6705 44.0595 39.8369 45.1307 40.6509C45.5897 41 45.7558 41.5596 46.1318 41.9804C47.0076 42.9592 48.6924 42.9119 50.094 42.7145C50.8981 42.6004 51.8846 42.5237 52.373 43.0897C52.6074 43.3573 52.6741 43.7243 52.946 43.9658C53.4343 44.403 54.328 44.1811 54.805 43.7325C55.2819 43.2839 55.5098 42.677 55.907 42.1729C56.6803 41.1942 58.0395 40.6607 58.8372 39.6933C59.5046 38.8777 59.7064 37.8565 59.8888 36.8712L60.5676 33.2186C60.8427 31.7374 61.0934 30.1191 60.2615 28.8141C59.9653 28.3442 59.5404 27.9397 59.2848 27.4535C59.1139 27.1273 59.0179 26.7831 58.8193 26.4747C58.5838 26.1535 58.3024 25.8688 57.9842 25.6297L56.3775 24.2969C55.8282 23.8151 55.2407 23.3786 54.621 22.9919C52.3274 21.6526 48.8926 22.0049 46.2718 22.2496Z" fill="#464353"/>
<path d="M11.9567 49.1436C11.5709 49.5547 11.2144 49.9984 10.8009 50.3834C10.4372 50.7075 10.0568 51.0125 9.66142 51.2969C9.0233 51.7755 8.39929 52.2708 7.78939 52.7831C7.15309 53.2872 6.57732 53.8637 6.07363 54.5008C5.20436 55.6705 4.79251 57.1256 3.97859 58.3345C3.25908 59.4062 2.24492 60.2529 1.51402 61.3165C1.19337 61.7637 0.955201 62.2648 0.810786 62.7961C0.702991 63.3103 0.65438 63.8353 0.665907 64.3606C0.651257 65.2219 0.638235 66.093 0.814043 66.9364C0.989851 67.7798 1.37565 68.6085 2.03656 69.1616C2.65026 69.6754 3.44302 69.912 4.21951 70.1077C4.61996 70.2072 5.05297 70.3002 5.43389 70.142C5.71262 70.0009 5.95456 69.7964 6.14038 69.5449L8.12147 67.2611C9.44654 65.7276 10.8237 64.1615 12.642 63.2643C13.2118 62.9854 13.8124 62.7749 14.3838 62.5041C16.8061 61.3345 18.5186 58.9397 19.1827 56.3296C19.3455 55.6917 19.4497 55.0408 19.5555 54.3899L19.842 52.6052C19.864 52.5158 19.864 52.4223 19.842 52.3328C19.7971 52.2322 19.7249 52.1463 19.6336 52.0849C18.2537 50.9681 16.9617 49.7464 15.7691 48.4307C15.4859 48.1175 15.2205 47.6884 14.8933 47.4258C14.4831 47.0995 14.514 47.124 14.0208 47.4258C13.2621 47.9072 12.5683 48.4846 11.9567 49.1436V49.1436Z" fill="#A1616A"/>
<path d="M25.5085 61.0196C25.4921 60.9817 25.4681 60.9475 25.4381 60.9191C25.4082 60.8908 25.3728 60.8687 25.3341 60.8544C25.2954 60.8401 25.2542 60.8337 25.213 60.8358C25.1718 60.8378 25.1315 60.8481 25.0944 60.8662C25.0573 60.8842 25.0242 60.9096 24.9971 60.9407C24.97 60.9719 24.9495 61.0083 24.9368 61.0476C24.9241 61.0869 24.9195 61.1284 24.9232 61.1695C24.9269 61.2107 24.9388 61.2507 24.9583 61.2871L24.7955 61.3671L29.6498 71.3377L30.5272 70.9086L25.6729 60.9315L25.5085 61.0196Z" fill="#3F3D56"/>
<path opacity="0.04" d="M11.9567 49.1436C11.5709 49.5547 11.2144 49.9984 10.8009 50.3834C10.4372 50.7075 10.0568 51.0125 9.66142 51.2969C9.0233 51.7755 8.39929 52.2708 7.78939 52.7831C7.15309 53.2872 6.57732 53.8637 6.07363 54.5008C5.20436 55.6705 4.79251 57.1256 3.97859 58.3345C3.25908 59.4062 2.24492 60.2529 1.51402 61.3165C1.19337 61.7637 0.955201 62.2648 0.810786 62.7961C0.702991 63.3103 0.65438 63.8353 0.665907 64.3606C0.651257 65.2219 0.638235 66.093 0.814043 66.9364C0.989851 67.7798 1.37565 68.6085 2.03656 69.1616C2.65026 69.6754 3.44302 69.912 4.21951 70.1077C4.61996 70.2072 5.05297 70.3002 5.43389 70.142C5.71262 70.0009 5.95456 69.7964 6.14038 69.5449L8.12147 67.2611C9.44654 65.7276 10.8237 64.1615 12.642 63.2643C13.2118 62.9854 13.8124 62.7749 14.3838 62.5041C16.8061 61.3345 18.5186 58.9397 19.1827 56.3296C19.3455 55.6917 19.4497 55.0408 19.5555 54.3899L19.842 52.6052C19.864 52.5158 19.864 52.4223 19.842 52.3328C19.7971 52.2322 19.7249 52.1463 19.6336 52.0849C18.2537 50.9681 16.9617 49.7464 15.7691 48.4307C15.4859 48.1175 15.2205 47.6884 14.8933 47.4258C14.4831 47.0995 14.514 47.124 14.0208 47.4258C13.2621 47.9072 12.5683 48.4846 11.9567 49.1436V49.1436Z" fill="black"/>
<path d="M68.0753 67.5188C68.059 68.5596 68.0183 69.6314 67.587 70.5808C67.4014 70.9919 67.1132 71.3964 66.6819 71.5318C66.4208 71.5923 66.1506 71.6022 65.8858 71.5612C62.6922 71.2799 59.474 71.5358 56.3645 72.3181C57.1947 70.6542 56.7178 68.6591 56.9473 66.8124C57.0108 66.3084 57.1264 65.8124 57.1703 65.3067C57.3331 63.5123 56.5664 61.77 56.2148 59.9984C55.9095 58.4649 55.9095 56.886 56.2148 55.3524C56.2746 54.9577 56.4101 54.5782 56.6136 54.235C56.852 53.901 57.1654 53.6277 57.5284 53.4372C58.847 52.6852 60.4016 52.5987 61.883 52.6983C62.8808 52.7651 64.8815 52.6705 65.7133 53.2855C66.6233 53.9593 66.9114 56.2219 67.1572 57.2676C67.5252 58.8713 67.7755 60.4999 67.906 62.1403C68.0655 63.9283 68.0997 65.7243 68.0753 67.5188Z" fill="#A1616A"/>
<path d="M9.76404 71.1305L15.6243 75.0457L41.9955 74.0669L24.5775 71.1305H9.76404Z" fill="white"/>
<path d="M17.4914 40.0229C16.5294 40.8728 15.7138 41.8744 14.8022 42.7798C13.552 44.0229 12.1309 45.08 10.7163 46.1322C11.2235 46.2742 11.6852 46.5459 12.0562 46.9205C12.4271 47.2951 12.6946 47.7598 12.8325 48.2692C12.8944 48.509 12.9253 48.7586 12.9953 48.9935C13.1581 49.5498 13.5162 50.0294 13.9004 50.4617C15.551 52.3263 17.861 53.7064 18.8344 56.0082C18.8662 56.1202 18.9351 56.218 19.0298 56.2855C19.109 56.3206 19.1969 56.3309 19.2821 56.3149C20.1627 56.2219 20.8367 55.5106 21.3983 54.8189C22.5703 53.3507 23.5877 51.7292 24.1656 49.938C24.7435 48.1468 24.8363 46.1664 24.2063 44.3915C23.8922 43.5074 23.4071 42.695 22.9252 41.8907C22.5031 41.1871 22.082 40.4845 21.662 39.7831C21.4422 39.4127 21.1622 38.6607 20.7309 38.478C19.7997 38.0767 18.0889 39.4242 17.4914 40.0229Z" fill="#175190"/>
<path d="M65.4381 50.5661L66.8234 53.8287C65.3153 53.3007 63.7035 53.1399 62.1212 53.3598C60.5389 53.5796 59.0315 54.1737 57.7237 55.093C56.9342 55.6591 56.2098 56.3703 55.8533 57.2741C55.6773 57.3076 55.4955 57.2906 55.3288 57.2251C55.162 57.1596 55.0171 57.0482 54.9108 56.9038C54.7024 56.6109 54.5816 56.2646 54.5624 55.9054C54.4338 54.6525 54.9075 53.4241 55.3763 52.2529C55.5945 51.7047 55.8191 51.1452 56.2065 50.6998C56.594 50.2545 57.1084 49.9609 57.6228 49.6835C59.2639 48.774 60.9826 48.013 62.7586 47.4095C63.5074 47.1664 64.2921 47.1713 64.7121 47.8728C65.1988 48.7096 65.0572 49.6754 65.4381 50.5661Z" fill="#175190"/>
<path d="M9.79811 60.3556C10.1448 60.633 10.4492 60.9609 10.8057 61.2251C11.1828 61.4875 11.584 61.7131 12.0038 61.8989L13.6089 62.6721C14.1063 62.9312 14.6268 63.1431 15.1635 63.3051C15.8505 63.4894 16.5716 63.5074 17.2618 63.6786C18.1327 63.894 18.9287 64.3426 19.7866 64.602C20.6445 64.8614 21.6489 64.9038 22.3651 64.3638C22.8128 64.0261 23.1514 63.4682 23.7065 63.385C24.0646 63.3377 24.4097 63.5106 24.7288 63.6786L28.9058 65.8793C29.4691 66.1762 30.0649 66.5057 30.3595 67.0718C30.6541 67.6379 30.4556 68.4976 29.8353 68.6444C29.6192 68.6693 29.4018 68.6818 29.1842 68.6819C28.9693 68.708 28.7349 68.8353 28.7056 69.0522C28.7045 69.187 28.74 69.3195 28.8082 69.4356C28.9954 69.8662 29.0507 70.3817 28.8326 70.7994C28.6145 71.217 28.0789 71.4764 27.6508 71.2888C27.724 71.9201 27.0387 72.3622 26.4282 72.5302C24.8883 72.9527 23.2556 72.6933 21.6814 72.4258C21.0628 72.3214 20.4345 72.2137 19.8713 71.9364C19.601 71.8043 19.3503 71.6346 19.0769 71.5122C18.3264 71.1778 17.4734 71.2219 16.653 71.2366C12.8585 71.3034 9.0965 70.5987 5.36546 69.8972C4.67362 69.7667 3.96225 69.6281 3.37134 69.2447C2.23185 68.5008 1.8086 66.9739 1.99581 65.6232C2.18301 64.2725 2.86671 63.049 3.53901 61.8614L4.40991 60.323C4.52376 60.0874 4.68311 59.8767 4.87874 59.7031C6.15986 58.7227 8.70093 59.4715 9.79811 60.3556Z" fill="#A1616A"/>
<path opacity="0.04" d="M9.79811 60.3556C10.1448 60.633 10.4492 60.9609 10.8057 61.2251C11.1828 61.4875 11.584 61.7131 12.0038 61.8989L13.6089 62.6721C14.1063 62.9312 14.6268 63.1431 15.1635 63.3051C15.8505 63.4894 16.5716 63.5074 17.2618 63.6786C18.1327 63.894 18.9287 64.3426 19.7866 64.602C20.6445 64.8614 21.6489 64.9038 22.3651 64.3638C22.8128 64.0261 23.1514 63.4682 23.7065 63.385C24.0646 63.3377 24.4097 63.5106 24.7288 63.6786L28.9058 65.8793C29.4691 66.1762 30.0649 66.5057 30.3595 67.0718C30.6541 67.6379 30.4556 68.4976 29.8353 68.6444C29.6192 68.6693 29.4018 68.6818 29.1842 68.6819C28.9693 68.708 28.7349 68.8353 28.7056 69.0522C28.7045 69.187 28.74 69.3195 28.8082 69.4356C28.9954 69.8662 29.0507 70.3817 28.8326 70.7994C28.6145 71.217 28.0789 71.4764 27.6508 71.2888C27.724 71.9201 27.0387 72.3622 26.4282 72.5302C24.8883 72.9527 23.2556 72.6933 21.6814 72.4258C21.0628 72.3214 20.4345 72.2137 19.8713 71.9364C19.601 71.8043 19.3503 71.6346 19.0769 71.5122C18.3264 71.1778 17.4734 71.2219 16.653 71.2366C12.8585 71.3034 9.0965 70.5987 5.36546 69.8972C4.67362 69.7667 3.96225 69.6281 3.37134 69.2447C2.23185 68.5008 1.8086 66.9739 1.99581 65.6232C2.18301 64.2725 2.86671 63.049 3.53901 61.8614L4.40991 60.323C4.52376 60.0874 4.68311 59.8767 4.87874 59.7031C6.15986 58.7227 8.70093 59.4715 9.79811 60.3556Z" fill="black"/>
<path d="M59.49 63.1745C58.6419 63.5758 57.6684 63.615 56.7829 63.9233C55.8973 64.2316 55.1452 64.7863 54.3329 65.2382C52.2167 66.4225 49.7749 66.8695 47.3771 67.2953C45.9234 67.5563 44.447 67.8173 42.9819 67.7553C40.9992 67.6705 39.0946 67.0081 37.1737 66.509C35.2529 66.0098 33.2034 65.6737 31.3004 66.2349C30.3067 66.5381 29.3983 67.0717 28.6488 67.7925C27.8993 68.5132 27.3299 69.4009 26.9866 70.3834C26.5878 71.5563 26.5325 72.8205 26.609 74.0571C27.0094 74.3524 27.5694 73.9429 27.7875 73.4943C28.0057 73.0457 28.1245 72.4959 28.5477 72.2349C29.2819 72.4845 29.461 73.4649 30.0665 73.9494C30.4442 74.2528 30.9488 74.3328 31.429 74.4013L33.9034 74.7537C34.4992 74.8385 35.191 74.8956 35.6224 74.4747C35.8324 74.2708 35.948 73.9853 36.1401 73.7667C36.534 73.3295 37.1916 73.2545 37.7777 73.3132C39.6074 73.4959 41.3231 74.6851 43.1398 74.4029C43.7649 74.3067 44.3461 74.0391 44.9419 73.8287C48.4727 72.5791 52.3958 73.3393 56.0699 72.6232C57.4714 72.3507 58.8209 71.8679 60.1541 71.3589C60.8785 71.0832 61.6111 70.7944 62.2297 70.3279C62.8157 69.8763 63.2778 69.2831 63.5728 68.6038C63.8677 67.9245 63.9859 67.1812 63.9161 66.4437C63.7798 65.3197 63.2202 64.2903 62.3517 63.5661C62.0652 63.3214 61.6892 62.8532 61.3457 62.6998C60.6897 62.4111 60.0467 62.9119 59.49 63.1745Z" fill="#A1616A"/>
<g opacity="0.1">
<path opacity="0.1" d="M54.7334 42.3345C54.4615 42.093 54.3948 41.726 54.1604 41.4584C53.672 40.8924 52.6855 40.969 51.8814 41.0832C50.4798 41.2806 48.7885 41.3263 47.9192 40.3491C47.5431 39.9283 47.3771 39.3703 46.918 39.0196C45.8469 38.2039 44.0042 39.0392 42.824 38.3491C41.7936 37.7472 41.8603 36.3508 41.0008 35.5759C40.1413 34.801 38.6518 34.9022 37.4846 35.2888C37.2872 35.3797 37.0658 35.4048 36.853 35.3606C36.4835 35.23 36.5096 34.77 36.6007 34.4307C37.0451 32.7912 37.4977 31.1354 38.3621 29.6281C38.6762 29.0783 39.0474 28.5482 39.2492 27.9576C39.6025 26.9234 39.4218 25.7537 39.8857 24.7749C39.3876 25.1012 38.909 25.4568 38.6013 25.9168C37.9079 26.9527 38.1765 28.2708 37.7874 29.4209C37.5856 30.0114 37.2144 30.5416 36.9002 31.0914C36.0359 32.5987 35.5833 34.2545 35.1389 35.894C35.0477 36.2333 35.0217 36.6933 35.3912 36.8238C35.604 36.8681 35.8253 36.843 36.0228 36.7521C37.19 36.3654 38.673 36.2545 39.539 37.0392C40.405 37.8239 40.3318 39.2154 41.3622 39.8124C42.5424 40.5025 44.3851 39.6689 45.4562 40.4829C45.9153 40.832 46.0813 41.3915 46.4574 41.8124C47.3331 42.7912 49.018 42.7439 50.4196 42.5465C51.2237 42.4323 52.2102 42.3557 52.6986 42.9217C52.933 43.1893 52.9997 43.5563 53.2716 43.7978C53.7599 44.2349 54.6536 44.0131 55.1306 43.5645C55.4364 43.2453 55.6981 42.8865 55.9087 42.4976C55.4854 42.6265 55.0345 42.6069 54.7334 42.3345Z" fill="black"/>
<path opacity="0.1" d="M57.6992 40.54C57.5944 40.6753 57.4971 40.8164 57.4078 40.9625C58.0329 40.5155 58.6955 40.0979 59.1627 39.5286C59.2839 39.3813 59.3928 39.2241 59.4882 39.0588C58.8387 39.5253 58.1615 39.9544 57.6992 40.54Z" fill="black"/>
</g>
<path d="M90.5869 72.8434L91.0753 119.662L93.3543 119.336L92.8659 72.8434H90.5869Z" fill="#3F3D56"/>
<path d="M104.261 81.3263L104.749 128.145L107.028 127.819L106.54 81.3263H104.261Z" fill="#3F3D56"/>
<path d="M146.834 104.977L146.824 104.078V103.543L146.738 95.3083L146.603 82.4339L146.58 81.323H144.301L144.313 82.3931L144.384 89.2887L144.415 92.2741L144.441 94.6917L144.483 98.8711L144.51 101.336V101.597L144.544 104.837L144.573 107.693L144.759 107.488C145.057 107.154 145.349 106.815 145.634 106.47L146.834 104.977Z" fill="#3F3D56"/>
<path d="M101.738 88.9119L100.435 90.863L101.738 99.752L112.807 102.788H130.713L141.457 103.439L146.575 99.9282L145.69 93.8989L141.783 88.9119H101.738Z" fill="#175190"/>
<path d="M100.435 90.863L99.7843 96.2822C99.7843 96.2822 96.3658 106.907 123.876 106.256C151.387 105.605 146.666 103.437 146.666 103.437L146.504 97.1501C146.504 97.1501 147.462 100.126 133.481 99.7227C119.499 99.3198 106.458 98.018 106.458 98.018C106.458 98.018 101.575 98.8842 100.435 90.863Z" fill="#3F3D56"/>
<path d="M123.355 42.2887C121.786 43.0049 120.598 44.3931 119.802 45.9282C119.006 47.4633 118.558 49.1484 118.117 50.8222C117.651 52.5872 117.184 54.3572 116.943 56.1664C116.514 59.3833 116.836 62.7651 118.311 65.6541C119.786 68.5432 122.511 70.8744 125.701 71.4306C126.933 71.6476 128.2 71.6036 129.445 71.4747C131.696 71.2358 133.913 70.7461 136.056 70.0146C138.294 69.2561 140.624 68.0881 141.62 65.9363C142.198 64.6884 142.247 63.2659 142.219 61.8923C142.142 58.1486 141.578 54.4309 140.541 50.8336C140.24 49.7895 139.89 48.7373 139.251 47.858C138.613 46.9788 137.741 46.3344 136.85 45.7373C133.043 43.168 128.039 40.155 123.355 42.2887Z" fill="#FBBEBE"/>
<path opacity="0.05" d="M123.355 42.2887C121.786 43.0049 120.598 44.3931 119.802 45.9282C119.006 47.4633 118.558 49.1484 118.117 50.8222C117.651 52.5872 117.184 54.3572 116.943 56.1664C116.514 59.3833 116.836 62.7651 118.311 65.6541C119.786 68.5432 122.511 70.8744 125.701 71.4306C126.933 71.6476 128.2 71.6036 129.445 71.4747C131.696 71.2358 133.913 70.7461 136.056 70.0146C138.294 69.2561 140.624 68.0881 141.62 65.9363C142.198 64.6884 142.247 63.2659 142.219 61.8923C142.142 58.1486 141.578 54.4309 140.541 50.8336C140.24 49.7895 139.89 48.7373 139.251 47.858C138.613 46.9788 137.741 46.3344 136.85 45.7373C133.043 43.168 128.039 40.155 123.355 42.2887Z" fill="black"/>
<path d="M121.593 62.8222C122.047 63.4478 122.596 63.9983 123.22 64.4535C124.77 65.5269 126.759 65.6721 128.641 65.7308C130.152 65.7765 131.884 65.69 132.831 64.509C133.258 63.9771 133.45 63.2985 133.622 62.6378C134.687 58.5809 135.444 54.4489 135.885 50.2773L140.196 50.292C142.061 58.2969 141.908 66.6183 141.745 74.8385L141.509 86.8254L138.732 86.5302C132.138 85.8303 125.534 85.1305 118.903 85.0098C115.019 84.9382 111.133 85.0667 107.261 85.3948L113.308 67.3752C114.093 65.0326 114.886 62.659 115.07 60.1974C115.335 56.6264 114.336 52.8564 115.721 49.553C115.832 49.2871 115.972 49.0114 116.224 48.8727C116.476 48.7341 116.795 48.7683 117.085 48.8059C117.632 48.8793 119.304 48.8059 119.701 49.1566C120.287 49.6656 119.9 49.7422 119.693 50.5628C119.323 52.031 118.973 53.3899 118.978 54.92C118.983 57.6982 119.843 60.6313 121.593 62.8222Z" fill="#175190"/>
<path d="M146.834 104.977C147.56 104.011 148.244 103.011 148.887 101.977C148.561 101.279 148.203 100.597 147.918 99.8842C147.482 98.7912 147.231 97.633 146.984 96.4829C146.899 96.0914 146.815 95.6998 146.731 95.3083C145.82 91.0489 144.964 86.7292 144.786 82.4111C144.77 82.0522 144.76 81.6933 144.755 81.3344C144.755 81.2822 144.755 81.2316 144.755 81.1713C144.755 80.7781 144.755 80.385 144.755 79.9935C144.775 79.0147 144.837 78.0277 144.949 77.0457C144.97 76.8532 144.995 76.6607 145.021 76.4682C145.021 76.4258 145.03 76.385 145.037 76.3426L156.106 75.938L157.037 75.9038C157.677 75.8809 158.354 75.845 158.882 75.4812C159.769 74.8711 159.873 73.6199 159.858 72.5449C159.805 69.8277 159.497 67.1215 158.94 64.4617C158.52 62.4617 157.921 60.4176 156.577 58.8809C155.473 57.6183 153.875 56.6998 153.3 55.1289C153.087 54.5449 153.033 53.9038 152.756 53.3458C152.479 52.7879 152.022 52.3785 151.591 51.9478C150.072 50.4402 148.813 48.6919 147.863 46.7733C147.204 45.4421 146.489 43.9739 145.628 43.0538C145.585 43.0065 145.543 42.9625 145.499 42.9201C144.767 42.1941 143.928 41.876 142.935 42.3703C142.757 42.4601 142.587 42.566 142.427 42.6868V42.6868C142.074 42.9578 141.75 43.2662 141.462 43.6069C140.459 44.7626 139.579 46.0201 138.836 47.3589C138.314 48.3015 137.866 49.2832 137.495 50.2953C137.202 51.0949 136.961 51.9121 136.771 52.7423C136.631 53.3573 136.52 53.9788 136.432 54.602C136.106 56.9445 136.106 59.3328 136.152 61.7047C136.201 63.8842 136.297 66.0685 136.494 68.2398C136.543 68.7651 136.597 69.2898 136.657 69.814C136.776 70.8505 136.924 71.8836 137.099 72.9135C137.169 73.3067 137.241 73.6998 137.321 74.0914C137.34 74.1958 137.362 74.3002 137.383 74.4029L137.392 74.447C137.608 75.357 137.774 76.2778 137.892 77.2055C137.905 77.3219 137.915 77.4377 137.922 77.553C137.949 78.0862 137.945 78.6206 137.909 79.1533C137.871 79.783 137.812 80.4111 137.783 81.0408C137.783 81.1517 137.783 81.261 137.772 81.3671C137.764 81.6852 137.772 82.0033 137.772 82.3214C137.805 83.0824 137.895 83.8399 138.042 84.5873C138.317 85.9775 138.791 87.3204 139.45 88.5742C139.512 88.6917 139.575 88.8075 139.639 88.9217C140.464 90.3997 141.506 91.7553 142.27 93.2675C142.928 94.6284 143.42 96.064 143.735 97.5432C143.843 98.0315 143.946 98.5209 144.044 99.0114C144.195 99.7945 144.33 100.584 144.469 101.374C144.482 101.452 144.496 101.537 144.511 101.608C144.695 102.656 144.889 103.698 145.138 104.721C145.283 105.316 145.445 105.904 145.636 106.481L146.834 104.977Z" fill="#464353"/>
<path d="M144.659 92.1191C144.659 92.2659 144.65 92.4127 144.643 92.5612C144.614 93.277 144.548 93.9908 144.446 94.6998C144.311 95.6676 144.075 96.6185 143.741 97.5367C143.52 98.1405 143.239 98.7203 142.901 99.2675C142.602 99.7534 142.252 100.206 141.856 100.617C140.879 101.635 139.473 101.959 138.112 102.388C137.486 102.57 136.881 102.818 136.307 103.127C136.204 103.184 136.103 103.246 136.006 103.312L134.303 104.442C133.772 104.793 133.23 105.157 132.866 105.677C132.806 105.766 132.751 105.858 132.703 105.953C132.472 106.432 132.304 106.938 132.201 107.46C131.316 111.157 130.429 114.856 129.821 118.608C129.781 118.856 129.742 119.106 129.699 119.356L129.685 119.434C129.677 119.415 129.669 119.397 129.659 119.38C125.303 122.02 120.785 124.401 116.131 126.308L115.12 117.825C115.015 117.136 114.98 116.437 115.016 115.741C115.112 114.643 115.558 113.602 115.679 112.507C115.793 111.436 115.591 110.354 115.098 109.396C114.905 109.024 114.665 108.659 114.621 108.243C114.577 107.827 114.816 107.447 115.233 107.405C115.558 107.042 115.584 106.548 115.488 106.059C115.437 105.803 115.361 105.553 115.26 105.313C114.984 104.631 114.634 103.889 114.871 103.192C114.934 103.066 114.962 102.925 114.953 102.785C114.954 102.776 114.954 102.767 114.953 102.759C114.897 102.576 114.681 102.496 114.568 102.341C114.357 102.052 114.568 101.659 114.699 101.326C114.825 100.969 114.899 100.594 114.917 100.215C114.935 100.005 114.948 99.7928 114.971 99.584C115.002 99.3014 115.053 99.0213 115.122 98.7455C115.517 97.1828 116.468 95.8185 117.797 94.9086C118.43 94.4812 119.135 94.1697 119.781 93.7667C120.443 93.3195 121.075 92.829 121.672 92.2985C123.106 91.1022 124.597 89.9744 126.144 88.9152C127.808 87.7763 129.532 86.7275 131.308 85.7732C131.688 85.5677 132.067 85.3676 132.447 85.1729C132.861 84.9554 133.277 84.7493 133.696 84.5546C135.037 83.9135 136.559 84.1533 138.042 84.5807C138.664 84.7586 139.278 84.9706 139.87 85.1631C140.449 85.3516 141.006 85.6021 141.531 85.9103C142.844 86.6835 143.93 87.8254 144.381 89.2675C144.382 89.2768 144.382 89.286 144.381 89.2953C144.667 90.199 144.685 91.168 144.659 92.1191Z" fill="#F86D70"/>
<path d="M144.659 92.1191C144.659 92.2659 144.65 92.4127 144.643 92.5612C144.614 93.277 144.548 93.9908 144.446 94.6998C144.311 95.6676 144.075 96.6185 143.741 97.5367C143.52 98.1405 143.239 98.7203 142.901 99.2675C142.602 99.7534 142.252 100.206 141.856 100.617C140.879 101.635 139.473 101.959 138.112 102.388C137.486 102.57 136.881 102.818 136.307 103.127C136.204 103.184 136.103 103.246 136.006 103.312L134.303 104.442C133.772 104.793 133.23 105.157 132.866 105.677C132.806 105.766 132.751 105.858 132.703 105.953C132.472 106.432 132.304 106.938 132.201 107.46C131.316 111.157 130.429 114.856 129.821 118.608C129.781 118.856 129.742 119.106 129.699 119.356L129.685 119.434C129.677 119.415 129.669 119.397 129.659 119.38C125.303 122.02 120.785 124.401 116.131 126.308L115.12 117.825C115.015 117.136 114.98 116.437 115.016 115.741C115.112 114.643 115.558 113.602 115.679 112.507C115.793 111.436 115.591 110.354 115.098 109.396C114.905 109.024 114.665 108.659 114.621 108.243C114.577 107.827 114.816 107.447 115.233 107.405C115.558 107.042 115.584 106.548 115.488 106.059C115.437 105.803 115.361 105.553 115.26 105.313C114.984 104.631 114.634 103.889 114.871 103.192C114.934 103.066 114.962 102.925 114.953 102.785C114.954 102.776 114.954 102.767 114.953 102.759C114.897 102.576 114.681 102.496 114.568 102.341C114.357 102.052 114.568 101.659 114.699 101.326C114.825 100.969 114.899 100.594 114.917 100.215C114.935 100.005 114.948 99.7928 114.971 99.584C115.002 99.3014 115.053 99.0213 115.122 98.7455C115.517 97.1828 116.468 95.8185 117.797 94.9086C118.43 94.4812 119.135 94.1697 119.781 93.7667C120.443 93.3195 121.075 92.829 121.672 92.2985C123.106 91.1022 124.597 89.9744 126.144 88.9152C127.808 87.7763 129.532 86.7275 131.308 85.7732C131.688 85.5677 132.067 85.3676 132.447 85.1729C132.861 84.9554 133.277 84.7493 133.696 84.5546C135.037 83.9135 136.559 84.1533 138.042 84.5807C138.664 84.7586 139.278 84.9706 139.87 85.1631C140.449 85.3516 141.006 85.6021 141.531 85.9103C142.844 86.6835 143.93 87.8254 144.381 89.2675C144.382 89.2768 144.382 89.286 144.381 89.2953C144.667 90.199 144.685 91.168 144.659 92.1191Z" fill="#ED4C69"/>
<path d="M129.203 65.0979C129.186 65.06 129.162 65.0258 129.132 64.9974C129.102 64.9691 129.067 64.9471 129.028 64.9327C128.99 64.9184 128.948 64.912 128.907 64.9141C128.866 64.9161 128.826 64.9264 128.789 64.9445C128.751 64.9625 128.718 64.9879 128.691 65.0191C128.664 65.0502 128.644 65.0866 128.631 65.1259C128.618 65.1652 128.614 65.2067 128.617 65.2479C128.621 65.289 128.633 65.329 128.653 65.3654L128.49 65.4454L133.344 75.416L134.221 74.9869L129.367 65.0098L129.203 65.0979Z" fill="#3F3D56"/>
<path d="M135.271 54.6541C141.025 54.6541 145.69 49.9798 145.69 44.2136C145.69 38.4475 141.025 33.7732 135.271 33.7732C129.518 33.7732 124.853 38.4475 124.853 44.2136C124.853 49.9798 129.518 54.6541 135.271 54.6541Z" fill="#FBBEBE"/>
<path d="M149.022 37.7504C148.973 36.9204 148.85 36.0966 148.654 35.2887C148.042 32.6509 146.924 30.0538 144.998 28.1599C144.879 27.6968 144.737 27.24 144.573 26.7912C144.57 26.7801 144.566 26.7692 144.562 26.7586C143.987 25.1775 143.157 23.702 142.104 22.3915C141.493 21.6313 140.702 20.8809 139.728 20.8516C139.455 20.8418 139.165 20.8891 138.915 20.7635C138.73 20.644 138.575 20.4846 138.46 20.2969C137.978 19.6864 137.339 19.2196 136.611 18.9467C135.884 18.6739 135.096 18.6054 134.332 18.7488L134.231 18.77C134.174 18.7814 134.117 18.7945 134.068 18.8091C134.02 18.8238 133.932 18.8483 133.863 18.8695C133.938 18.9935 134.011 19.1191 134.083 19.2463C134.276 19.5911 134.455 19.9434 134.62 20.3034C134.757 20.6036 134.883 20.9086 135 21.2186C133.333 21.4095 131.975 22.5954 130.735 23.7243L127.814 26.3801C127.809 26.3846 127.804 26.3895 127.8 26.3948L127.715 26.4763C127.694 26.4975 127.673 26.5188 127.653 26.5416C127.645 26.5484 127.638 26.5561 127.632 26.5644C127.607 26.5905 127.585 26.6183 127.562 26.646C127.521 26.6974 127.485 26.7519 127.453 26.8091C127.437 26.8336 127.423 26.8592 127.411 26.8858C127.406 26.8936 127.402 26.9018 127.399 26.9103C127.388 26.9325 127.379 26.9554 127.371 26.9788C127.371 26.982 127.371 26.9854 127.371 26.9886C127.367 27.0019 127.363 27.0156 127.36 27.0294C127.327 27.1442 127.337 27.2672 127.388 27.3752L129.313 27.3964H129.54C129.55 27.6542 129.558 27.9135 129.567 28.1713C129.262 28.4005 128.968 28.6455 128.688 28.9054C128.383 29.1887 128.096 29.4916 127.83 29.8124C126.094 31.9152 125.187 34.6313 125.096 37.3654C125.096 37.4502 125.096 37.5285 125.096 37.6166C125.096 37.8662 125.096 38.1158 125.096 38.3638C125.096 38.5269 125.11 38.69 125.123 38.8532C125.124 39.0657 125.18 39.2743 125.286 39.4584C125.3 39.479 125.315 39.4986 125.332 39.5171C125.429 39.6234 125.547 39.7098 125.677 39.7716L125.817 39.8401C125.887 39.8744 125.954 39.907 126.019 39.9445C126.632 40.292 126.995 40.9625 127.554 41.3931C127.586 41.4176 127.619 41.4421 127.651 41.4633L127.725 41.5122L127.77 41.5416L127.832 41.5775C127.873 41.602 127.915 41.6243 127.957 41.6444V41.6444L128.036 41.6835H128.049C128.114 41.7129 128.179 41.7406 128.246 41.7651L128.338 41.7977L128.366 41.8075C128.392 41.8156 128.42 41.8254 128.447 41.832C128.503 41.8483 128.557 41.863 128.61 41.876L128.773 41.9119C128.837 41.9233 128.902 41.9347 128.967 41.9429L129.063 41.9559L129.16 41.9657C129.316 41.9799 129.472 41.988 129.629 41.9902C130.123 41.9871 130.616 41.9528 131.106 41.8874L135.26 41.398C136.203 41.2887 137.165 41.1794 138.094 41.3719C138.882 41.5351 139.608 41.9103 140.373 42.1762C140.546 42.2365 140.718 42.292 140.892 42.3393C140.956 42.3572 141.021 42.3768 141.086 42.3931L141.176 42.416L141.384 42.4665C141.459 42.4845 141.534 42.5024 141.609 42.5171C141.714 42.54 141.819 42.5595 141.924 42.5791C141.996 42.5938 142.069 42.6052 142.143 42.6183H142.157L142.366 42.6509H142.416L142.571 42.6721C142.646 42.6835 142.72 42.6933 142.797 42.7015C142.963 42.7221 143.129 42.7401 143.295 42.7553C143.564 42.7814 143.834 42.801 144.109 42.8173L144.379 42.8336L144.649 42.8466L145.463 42.8825H145.499H145.613C145.952 42.9062 146.292 42.8886 146.626 42.8303C146.684 42.8189 146.741 42.8059 146.798 42.7895C146.855 42.7732 146.902 42.7569 146.961 42.7373C147.571 42.5024 148.017 41.9625 148.327 41.385C148.392 41.2626 148.452 41.1403 148.507 41.0147C148.563 40.8891 148.613 40.7618 148.659 40.6346C148.716 40.4714 148.765 40.3165 148.807 40.1533C148.82 40.1093 148.831 40.0652 148.841 40.0196C148.851 39.9739 148.874 39.8842 148.887 39.8156C148.927 39.628 148.958 39.4388 148.981 39.2479C148.981 39.1876 148.996 39.1256 149.002 39.0652C149.017 38.9021 149.028 38.7504 149.035 38.5905C149.035 38.4698 149.035 38.3475 149.035 38.2251C149.033 38.093 149.022 37.9184 149.022 37.7504ZM144.848 28.0114C144.716 27.8874 144.581 27.7683 144.444 27.6558C144.597 27.752 144.732 27.8721 144.846 28.0114H144.848Z" fill="#464353"/>
<path d="M115.277 43.6395C114.051 43.4878 112.835 42.9494 111.625 43.2137C110.868 43.3768 110.217 43.8483 109.612 44.3328C107.358 46.1428 105.442 48.3382 103.952 50.8173C103.699 51.1879 103.521 51.6048 103.429 52.044C103.351 52.553 103.489 53.0701 103.654 53.5579C104.767 56.8548 107.149 59.6085 108.233 62.9152C109.372 66.3931 108.977 70.1941 108.137 73.7569C107.096 78.1553 105.403 82.3727 103.116 86.2691C102.806 86.8485 102.417 87.3821 101.961 87.8548C101.368 88.4257 100.572 88.8336 100.221 89.5807C100.058 89.907 100.011 90.2789 99.895 90.628C99.5694 91.6068 98.7815 92.4453 98.705 93.4779C98.648 94.2659 99.0208 95.0114 99.2471 95.7618C99.6287 97.051 99.5882 98.4288 99.1315 99.6933C98.3062 101.961 96.1477 104.023 96.7744 106.354C98.1727 105.951 99.7224 105.427 100.382 104.127C100.614 103.667 100.73 103.119 101.122 102.783C101.905 102.116 103.239 102.719 104.07 102.106C104.699 101.639 104.722 100.683 104.442 99.9494C104.162 99.2153 103.68 98.5693 103.465 97.814C103.09 96.4518 103.689 95.0114 103.579 93.6036C103.527 92.951 103.326 92.3262 103.312 91.677C103.284 90.4159 103.981 89.23 104.907 88.3735C105.833 87.5171 106.978 86.9494 108.104 86.3899L112.363 84.2691C113.908 83.5024 115.6 82.5677 116.107 80.9168C116.299 80.2985 116.3 79.6394 116.31 78.9934C116.455 69.1223 118.923 59.4502 121.376 49.8891C121.757 48.4078 122.144 46.9201 122.711 45.4975C123.277 44.075 124.386 42.9331 124.951 41.6117C121.674 41.2267 118.68 44.0669 115.277 43.6395Z" fill="#464353"/>
<path d="M138.752 105.566C139.128 107.85 139.357 110.183 139.536 112.504C136.606 114.938 133.452 117.055 130.246 119.02C130.064 119.132 129.88 119.243 129.696 119.346L129.681 119.424C129.674 119.406 129.665 119.388 129.655 119.37C129.407 118.832 128.972 118.402 128.431 118.16C127.23 115.631 126.03 113.103 124.83 110.574C124.179 109.209 123.528 107.83 123.203 106.357C123.203 106.326 123.188 106.294 123.183 106.263C122.936 105.121 122.879 103.935 122.714 102.778C122.631 102.116 122.482 101.463 122.27 100.83C122.074 100.268 121.806 99.721 121.568 99.1713C121.275 98.4926 121.029 97.8059 121.018 97.0734C121.018 96.8401 121.033 96.584 120.919 96.3882C120.797 96.2197 120.646 96.074 120.474 95.9576C120.259 95.7666 120.096 95.5241 120.001 95.2527C119.905 94.9813 119.88 94.69 119.927 94.4062C118.951 94.4568 118.4 95.509 118.008 96.4013C117.651 97.274 117.183 98.0966 116.615 98.8483C116.2 99.3852 115.674 99.8246 115.071 100.135C115.018 100.161 114.964 100.188 114.909 100.21C113.549 100.811 111.962 100.599 110.489 100.328C109.201 100.091 107.87 99.7977 106.834 98.9951L106.724 98.907C106.417 98.6518 106.144 98.3591 105.91 98.0359C105.042 96.8483 104.658 95.2839 104.445 93.7945C104.425 93.6542 104.406 93.5139 104.388 93.3736C104.24 92.3212 104.199 91.2564 104.266 90.1958C104.285 89.9348 104.313 89.6737 104.347 89.4144C104.37 89.2512 104.394 89.075 104.422 88.9054C104.421 88.9005 104.421 88.8956 104.422 88.8907C104.464 88.6215 104.51 88.3507 104.555 88.075C104.718 87.1501 104.881 86.2007 105.369 85.4046C105.691 84.9092 106.096 84.4742 106.568 84.1191C106.743 83.9804 106.924 83.8483 107.106 83.7211C107.403 83.5155 107.707 83.3197 108.016 83.1354C108.794 82.6686 109.611 82.2702 110.458 81.9445C110.66 81.8662 110.865 81.7928 111.07 81.7227C111.867 81.4385 112.726 81.3704 113.558 81.5253C114.295 81.6322 115.04 81.6759 115.784 81.6558C117.694 81.6183 119.612 81.2529 121.518 81.0163C124.165 80.6901 127.008 80.6509 129.317 81.9951C129.427 82.0587 129.535 82.1256 129.642 82.1958C130.782 82.9429 131.7 83.9902 132.441 85.1599C132.603 85.4062 132.745 85.6591 132.885 85.9152C133.208 86.5031 133.5 87.1075 133.759 87.7259C133.913 88.0296 133.996 88.3643 134.002 88.7047C133.998 88.7695 133.989 88.8338 133.976 88.8972C133.932 89.1289 133.844 89.354 133.813 89.5889C133.71 90.478 134.464 91.2202 134.746 92.0669C134.928 92.6183 134.908 93.2088 135.011 93.7896C135.159 94.6052 135.558 95.3393 135.916 96.0734C136.482 97.2551 136.966 98.4744 137.365 99.7227C137.648 100.592 137.891 101.475 138.104 102.365C138.173 102.651 138.239 102.938 138.301 103.225C138.478 104.015 138.623 104.788 138.752 105.566Z" fill="#FF5271"/>
<path d="M156.108 81.4078V82.5498L155.898 82.5465L155.664 82.5432L153.046 82.5106L146.596 82.4258L144.786 82.4029L144.317 82.3964L141.601 82.3622L137.772 82.3116L129.649 82.2056L115.553 82.0228L110.466 81.9576L108.425 81.9315L106.546 81.907L105.376 81.8907L104.267 81.876L96.0483 81.77L93.7694 81.7406L93.2729 81.7341L92.9505 80.9005L90.6081 74.8466L90.1799 73.7406L90.5055 72.4355L91.9706 73.4143L92.8724 73.5269L107.72 75.3768L110.507 75.7243L116.416 76.4617L122.205 77.1827L124.474 77.4649L137.902 79.1387L141.654 79.6069L144.76 79.9935L155.804 81.3703L156.108 81.4078Z" fill="#3F3D56"/>
<path d="M90.5055 72.4355L93.4356 80.1027L156.108 81.4078V73.0881L90.5055 72.4355Z" fill="#504F60"/>
<path d="M93.7611 80.9185L94.2495 127.737L96.5285 127.411L96.0401 80.9185H93.7611Z" fill="#3F3D56"/>
<path d="M155.898 82.5448H155.664C155.284 85.4638 154.656 88.3449 153.787 91.1566L153.046 82.5106L153.015 82.1419L155.753 81.8254L155.844 81.8156L155.898 82.5448Z" fill="#3F3D56"/>
<path d="M146.992 77.0032L123.144 77.4926L115.737 75.0456L135.597 73.9037L146.992 77.0032Z" fill="white"/>
<path d="M117.077 67.4894C116.824 67.5866 116.6 67.7466 116.426 67.9543C116.29 68.1794 116.207 68.4327 116.183 68.6949L115.783 71.0881C115.722 71.307 115.733 71.5398 115.814 71.752C115.918 71.9527 116.221 72.0571 116.372 71.8907C116.353 72.3589 116.393 72.8581 116.665 73.2398C116.937 73.6215 117.507 73.8222 117.891 73.5563C117.951 73.6547 118.032 73.7387 118.128 73.8027C118.224 73.8666 118.332 73.9089 118.446 73.9266C118.56 73.9443 118.676 73.9369 118.787 73.9051C118.898 73.8733 119 73.8177 119.087 73.7423C118.856 73.8206 118.84 74.1746 119.004 74.354C119.188 74.5168 119.423 74.6108 119.668 74.6199C122.529 75.024 125.445 74.6563 128.117 73.5547C128.369 73.4502 127.705 70.3328 127.638 70.013C127.476 69.261 127.394 68.3426 126.761 67.8369C125.247 66.6264 122.558 66.3882 120.714 66.5318C119.453 66.6273 118.221 66.9518 117.077 67.4894V67.4894Z" fill="#FBBEBE"/>
<path opacity="0.1" d="M141.342 67.8516C135.454 67.9641 129.444 68.0604 123.824 66.2937C124.361 68.3782 124.324 70.5695 123.717 72.6346L151.247 74.9185C152.414 75.0147 157.254 75.5628 158.392 75.2871C159.53 75.0114 148.844 71.4845 149.276 70.3932C150.463 67.3866 154.438 65.6248 151.574 65.5123C147.961 65.3687 144.983 67.7831 141.342 67.8516Z" fill="black"/>
<path d="M141.505 68.1778C135.617 68.2904 129.607 68.3866 123.987 66.6199C124.524 68.7044 124.487 70.8958 123.88 72.9609L151.41 75.2448C152.577 75.341 157.417 75.8973 158.555 75.6134C159.693 75.3296 159.426 73.9315 159.857 72.8402C161.044 69.8336 154.601 65.9511 151.737 65.8385C148.123 65.6949 145.146 68.1093 141.505 68.1778Z" fill="#464353"/>
<path d="M132.143 68.6313C132.396 68.7283 132.62 68.8883 132.794 69.0962C132.93 69.3215 133.013 69.5747 133.038 69.8368L133.438 72.23C133.499 72.449 133.488 72.6815 133.407 72.8939C133.303 73.0946 132.999 73.199 132.849 73.0326C132.867 73.5008 132.828 74 132.556 74.3817C132.284 74.7634 131.714 74.9641 131.329 74.6982C131.268 74.7966 131.188 74.8806 131.092 74.9446C130.996 75.0085 130.887 75.0508 130.773 75.0685C130.66 75.0862 130.543 75.0789 130.433 75.047C130.322 75.0152 130.219 74.9596 130.132 74.8842C130.363 74.9625 130.381 75.3165 130.217 75.4959C130.032 75.6588 129.797 75.7527 129.551 75.7618C126.691 76.1659 123.775 75.7982 121.104 74.6966C120.852 74.5922 121.514 71.4747 121.583 71.155C121.746 70.4029 121.827 69.4845 122.46 68.9788C123.972 67.7683 126.663 67.5302 128.508 67.6737C129.767 67.7694 130.999 68.0939 132.143 68.6313V68.6313Z" fill="#FBBEBE"/>
<path d="M93.237 63.4355C92.6965 64.1337 92.1545 64.8466 91.8061 65.6606C91.1403 67.2136 91.238 68.9722 91.3487 70.659C91.3796 71.1484 91.4187 71.6476 91.6743 72.0538C91.8952 72.3606 92.1867 72.6096 92.524 72.7797C93.9337 73.5823 95.5844 73.8221 97.1959 74.0016C99.6637 74.2756 102.14 74.4426 104.625 74.5024C110.782 74.6525 117.033 74.1484 123.03 75.5464C122.288 74.4159 122.289 72.92 122.704 71.6313C123.119 70.3425 123.919 69.2202 124.702 68.1158C121.957 67.2446 119.014 68.6052 116.139 68.4698C113.188 68.3311 110.456 66.6215 107.502 66.6231C106.867 66.6231 106.221 66.703 105.604 66.5497C104.987 66.3964 104.389 65.9298 104.332 65.2952C105.12 65.473 105.867 64.7977 106.193 64.057C106.519 63.3164 106.577 62.4796 106.893 61.734C107.679 59.8792 109.804 59.0195 111.125 57.4926C111.334 57.2512 111.531 56.9657 111.524 56.6459C111.493 56.3751 111.38 56.1204 111.199 55.9167C110.1 54.4486 108.444 53.6329 107.069 52.491C106.59 52.0929 105.625 50.5921 105.088 50.4535C104.092 50.1973 103.247 51.6394 102.599 52.3425C99.3279 55.9042 96.2073 59.6019 93.237 63.4355Z" fill="#464353"/>
<path opacity="0.07" d="M125.97 63.0212C126.382 63.3278 126.749 63.692 127.059 64.1027C127.213 64.309 127.323 64.5451 127.382 64.7962C127.44 65.0472 127.446 65.3077 127.399 65.5611C127.349 65.0883 127.454 64.6119 127.699 64.2046C127.943 63.7973 128.314 63.4813 128.755 63.305L125.97 63.0212Z" fill="black"/>
<g opacity="0.1">
<path opacity="0.1" d="M134.998 20.2414C134.806 19.7316 134.586 19.2332 134.337 18.7488C134.176 18.7798 134.017 18.8206 133.862 18.8711C134.141 19.336 134.393 19.817 134.615 20.3116C134.741 20.279 134.868 20.2561 134.998 20.2414Z" fill="black"/>
<path opacity="0.1" d="M144.443 26.6737C144.487 26.7096 144.529 26.7504 144.571 26.7879C144.568 26.7773 144.564 26.767 144.56 26.7569C144.523 26.7297 144.484 26.702 144.443 26.6737Z" fill="black"/>
<path opacity="0.1" d="M129.31 27.3915C129.395 27.3246 129.473 27.2545 129.564 27.1892L129.538 26.4144L127.8 26.3964C127.518 26.6558 127.218 27.0277 127.384 27.3752L129.31 27.3915Z" fill="black"/>
<path opacity="0.1" d="M148.317 40.4356C148.008 41.0131 147.562 41.5547 146.951 41.7879C146.481 41.9674 145.963 41.9511 145.46 41.9282C143.744 41.8581 141.999 41.7814 140.378 41.2121C139.619 40.9445 138.893 40.571 138.099 40.4062C137.169 40.2137 136.207 40.323 135.265 40.4339L131.111 40.9233C129.885 41.0669 128.519 41.1746 127.541 40.4209C126.981 39.9902 126.619 39.3197 126.006 38.9739C125.747 38.8271 125.439 38.7325 125.271 38.4845C125.166 38.3004 125.109 38.0918 125.109 37.8793C125.096 37.708 125.087 37.5367 125.081 37.3654C125.063 37.8631 125.073 38.3614 125.109 38.8581C125.109 39.0706 125.166 39.2792 125.271 39.4633C125.434 39.7096 125.747 39.8042 126.006 39.9527C126.619 40.2985 126.982 40.969 127.541 41.3997C128.517 42.1534 129.885 42.0522 131.111 41.9021L135.265 41.4127C136.207 41.3018 137.169 41.1925 138.099 41.385C138.887 41.5481 139.613 41.9233 140.378 42.1909C142.006 42.7602 143.744 42.8434 145.46 42.907C145.963 42.9282 146.481 42.9462 146.951 42.7667C147.562 42.5335 148.008 41.9919 148.317 41.4144C148.916 40.2969 149.084 39.0294 149.02 37.752C148.985 38.6875 148.745 39.6037 148.317 40.4356V40.4356Z" fill="black"/>
</g>
<path opacity="0.1" d="M134.951 21.2903L137.23 23.4111C137.23 23.4111 135.276 22.5954 134.951 21.2903Z" fill="black"/>
</g>
<defs>
<clipPath id="clip0">
<rect width="160" height="131" fill="white" transform="translate(0.00012207)"/>
</clipPath>
</defs>
</svg>
