<svg width="730" height="624" viewBox="0 0 730 624" fill="none" xmlns="http://www.w3.org/2000/svg">
<path d="M678.5 70.5538C511.641 5.33434 334.817 160.414 258.309 254.643C178.898 352.446 158.661 428.786 101.5 541.054C63.4017 615.881 0 641.054 0 641.054H742.5C742.5 641.054 887.308 152.17 678.5 70.5538Z" fill="#F0F0F5"/>
<path d="M432.423 536.229C577.601 536.229 695.291 526.573 695.291 514.663C695.291 502.752 577.601 493.097 432.423 493.097C287.245 493.097 169.554 502.752 169.554 514.663C169.554 526.573 287.245 536.229 432.423 536.229Z" fill="#D3D8DD"/>
<path d="M642.692 100.897H123.59C120.697 100.897 118.352 103.241 118.352 106.131V360.61C118.352 363.5 120.697 365.844 123.59 365.844H642.692C645.585 365.844 647.93 363.5 647.93 360.61V106.131C647.93 103.241 645.585 100.897 642.692 100.897Z" fill="#FF5271"/>
<path opacity="0.1" d="M118.352 349.874H647.93V360.61C647.93 361.998 647.378 363.329 646.395 364.311C645.413 365.292 644.081 365.844 642.692 365.844H123.59C122.201 365.844 120.869 365.292 119.886 364.311C118.904 363.329 118.352 361.998 118.352 360.61V349.874Z" fill="black"/>
<path d="M207.342 330.275H171.746C170.743 330.275 169.93 331.088 169.93 332.09V348.06C169.93 349.062 170.743 349.874 171.746 349.874H207.342C208.345 349.874 209.158 349.062 209.158 348.06V332.09C209.158 331.088 208.345 330.275 207.342 330.275Z" fill="#0158AC"/>
<path d="M245.48 346.971H221.507C220.705 346.971 220.054 347.621 220.054 348.422C220.054 349.224 220.705 349.874 221.507 349.874H245.48C246.282 349.874 246.933 349.224 246.933 348.422C246.933 347.621 246.282 346.971 245.48 346.971Z" fill="#F9F9FC"/>
<path d="M196.191 152.711C215.362 156.246 234.917 152.711 254.008 150.315L312.029 143.056C314.376 142.759 317.79 141.358 319.17 144.225C319.948 145.829 319.425 149.306 319.483 151.15C319.635 156.231 319.621 161.312 319.483 166.394C319.221 176.106 318.509 185.796 317.601 195.465C315.836 214.389 313.337 233.211 312.088 252.207C311.448 261.876 311.129 271.574 311.412 281.242C311.477 283.551 311.572 285.859 311.71 288.16C311.862 290.737 313.017 294.562 310.206 296.282C308.601 297.27 305.441 297.219 303.603 297.509C300.697 297.967 297.791 298.329 294.827 298.627C275.293 300.58 255.505 299.767 235.898 299.651L176.693 299.346L162.251 299.266C160.944 299.266 156.229 300.05 155.423 298.496C155.081 297.836 155.989 294.744 156.149 293.916C156.372 292.551 156.614 291.189 156.876 289.829C158.561 280.284 160.551 270.797 162.556 261.317C166.864 240.992 171.274 220.566 173.046 199.806C173.925 189.389 173.344 178.879 174.419 168.484C174.92 163.657 175.516 152.885 181.945 152.457C187.394 152.094 193.002 152.457 198.465 152.457C198.754 152.457 199.031 152.342 199.235 152.138C199.439 151.934 199.554 151.657 199.554 151.368C199.554 151.079 199.439 150.802 199.235 150.598C199.031 150.394 198.754 150.279 198.465 150.279C193.307 150.279 188.142 150.141 182.984 150.243C179.555 150.308 177.172 151.121 175.538 154.271C171.361 162.358 171.79 173.144 171.659 181.971C171.346 203.101 168.099 223.782 163.871 244.447C161.743 254.849 159.447 265.215 157.333 275.624C156.338 280.596 155.386 285.583 154.515 290.584C154.108 292.965 152.052 298.213 153.861 300.398C155.67 302.583 161.234 301.407 163.726 301.422L181.059 301.523L214.272 301.712C235.731 301.835 257.263 302.438 278.715 301.806C288.958 301.502 299.782 301.081 309.756 298.634C312.727 297.908 314.158 296.544 314.274 293.379C314.448 288.472 313.649 283.413 313.548 278.484C312.821 236.31 322.737 194.725 321.72 152.536C321.655 149.669 322.737 142.439 319.599 140.705C318.19 139.921 316.359 140.349 314.877 140.523C312.044 140.85 309.218 141.249 306.385 141.583L269.591 146.17C257.829 147.622 246.076 149.19 234.293 150.526C221.82 151.978 209.223 152.841 196.794 150.526C195.421 150.272 194.832 152.37 196.213 152.624L196.191 152.711Z" fill="#F9F9FC"/>
<path d="M173.061 178.371L318.219 171.257C319.621 171.184 319.628 169.007 318.219 169.079L173.061 176.193C171.666 176.258 171.659 178.436 173.061 178.371Z" fill="#F9F9FC"/>
<path d="M217.781 160.42C217.375 160.849 217.08 161.372 216.922 161.941C216.764 162.511 216.748 163.111 216.875 163.688C217.001 164.265 217.267 164.803 217.649 165.254C218.031 165.705 218.518 166.057 219.066 166.277C221.021 167.17 223.316 166.423 225.256 165.936C228.162 165.21 231.067 164.564 234.053 164.034C240.551 162.885 247.133 162.273 253.732 162.205C256.74 162.169 259.725 162.307 262.733 162.437C264.912 162.525 267.259 162.699 269.104 161.349C271.211 159.81 271.893 156.805 269.83 154.932C266.925 152.282 260.663 153.821 257.306 154.097C245.128 155.108 233.029 156.912 221.086 159.498C219.72 159.788 220.294 161.893 221.667 161.595C229.547 159.897 237.487 158.532 245.487 157.501C249.42 157.018 253.359 156.609 257.306 156.275C259.166 156.122 261.026 155.984 262.885 155.875C263.612 155.832 264.382 155.752 265.123 155.774C267.426 155.825 267.695 155.411 266.314 158.191C265.087 160.652 265.479 160.369 263.35 160.289C262.45 160.289 261.549 160.187 260.648 160.144C258.803 160.066 256.958 160.025 255.113 160.02C251.185 160.02 247.267 160.209 243.359 160.586C240.046 160.906 236.741 161.356 233.465 161.937C231.416 162.3 229.382 162.721 227.355 163.185C226.462 163.396 225.561 163.613 224.667 163.838C224.239 163.955 223.803 164.056 223.374 164.165C221.786 164.717 220.432 163.991 219.313 161.987C220.287 160.978 218.754 159.432 217.773 160.449L217.781 160.42Z" fill="#F9F9FC"/>
<path d="M244.092 191.4C233.581 190.994 222.226 193.832 215.303 202.288C209.884 208.901 206.797 220.247 212.536 227.694C218.703 235.679 232.23 234.271 240.388 230.866C249.018 227.237 258.461 219.753 261.055 210.389C264.288 198.695 253.79 189.854 242.857 189.723C241.455 189.723 241.455 191.901 242.857 191.901C249.09 191.974 255.207 194.645 258.113 200.445C261.157 206.556 258.534 212.973 254.481 217.866C247.986 225.654 237.83 231.527 227.486 231.36C221.275 231.265 214.41 229.139 212.485 222.591C210.901 217.285 212.107 211.485 214.868 206.781C220.839 196.619 232.992 193.178 244.136 193.614C245.538 193.665 245.538 191.487 244.136 191.436L244.092 191.4Z" fill="#F9F9FC"/>
<path d="M233.653 207.529C233.205 207.363 232.722 207.313 232.25 207.384C231.777 207.455 231.33 207.644 230.95 207.933C230.57 208.223 230.27 208.604 230.077 209.041C229.884 209.478 229.805 209.957 229.847 210.433C230.065 213.264 233.188 214.062 235.535 213.895C237.562 213.721 239.93 212.973 239.218 210.44C239.087 209.992 238.861 209.577 238.555 209.223C238.249 208.87 237.871 208.587 237.445 208.393C236.795 208.135 236.09 208.048 235.397 208.139C235.128 208.139 232.665 209.039 233.712 207.957L231.997 207.732C232.187 207.92 232.333 208.148 232.424 208.399C232.514 208.65 232.547 208.918 232.52 209.184C232.523 209.374 232.576 209.559 232.673 209.723C232.769 209.886 232.907 210.022 233.071 210.116C233.236 210.21 233.423 210.26 233.612 210.261C233.802 210.262 233.989 210.214 234.155 210.121C234.404 210.016 234.677 209.984 234.944 210.026C235.211 210.068 235.461 210.184 235.665 210.361C235.87 210.537 236.021 210.767 236.102 211.025C236.183 211.282 236.19 211.557 236.123 211.819C236.065 212.071 236.097 212.335 236.214 212.565C236.331 212.795 236.526 212.976 236.764 213.077C237.002 213.177 237.268 213.191 237.515 213.115C237.762 213.039 237.974 212.878 238.114 212.661C238.84 211.355 239.719 208.756 238.63 207.391C237.903 206.469 236.501 206.745 235.629 207.282C235.091 207.663 234.59 208.093 234.133 208.567C233.254 209.344 232.68 209.707 233.007 208.219C233.552 205.511 236.138 203.355 238.499 202.274L236.901 201.047C236.063 204.193 234.565 207.125 232.506 209.649L234.365 210.418C234.313 209.421 234.569 208.433 235.099 207.587C235.63 206.741 236.409 206.08 237.329 205.693H236.261L236.828 206.622C236.617 207.994 238.717 208.582 238.927 207.195C239.203 205.402 238.07 203.072 235.971 203.951C233.465 204.996 232.164 207.863 232.215 210.418C232.215 211.289 233.45 211.964 234.082 211.195C236.392 208.39 238.079 205.127 239.029 201.62C239.08 201.412 239.068 201.194 238.997 200.992C238.926 200.791 238.797 200.614 238.627 200.484C238.457 200.354 238.252 200.276 238.039 200.26C237.825 200.244 237.611 200.291 237.424 200.394C235.248 201.377 233.408 202.977 232.135 204.996C231.249 206.448 230.137 208.712 231.038 210.382C231.186 210.649 231.385 210.884 231.624 211.074C231.863 211.264 232.138 211.404 232.432 211.487C232.726 211.57 233.033 211.594 233.336 211.558C233.64 211.521 233.932 211.425 234.198 211.275C234.87 210.877 235.483 210.388 236.022 209.823C236.29 209.583 236.588 209.17 236.944 209.097C237.264 208.879 237.249 209.003 236.893 209.482C236.889 210.234 236.669 210.969 236.261 211.601L238.252 212.436C238.431 211.758 238.41 211.043 238.192 210.377C237.973 209.711 237.566 209.122 237.019 208.682C236.473 208.243 235.811 207.97 235.113 207.898C234.415 207.826 233.711 207.958 233.087 208.277L234.729 209.22C234.763 208.297 234.472 207.39 233.908 206.658C233.822 206.517 233.706 206.397 233.567 206.307C233.429 206.216 233.272 206.158 233.108 206.137C232.944 206.115 232.778 206.13 232.621 206.182C232.464 206.233 232.32 206.319 232.201 206.433C231.096 207.587 230.886 209.583 232.273 210.65C233.312 211.442 233.82 210.65 234.961 210.469C238.833 209.968 236.574 211.71 235.208 211.768C234.597 211.834 233.98 211.789 233.385 211.638C231.869 211.125 231.774 210.464 233.101 209.656C234.402 210.186 234.961 208.081 233.682 207.558L233.653 207.529Z" fill="#F9F9FC"/>
<path d="M231.903 211.507C232.796 214.41 229.106 215.369 227.355 216.37C226.127 217.059 225.055 217.996 224.21 219.121C222.379 221.575 221.696 224.696 221.093 227.636C220.817 229.008 222.917 229.589 223.2 228.217C223.532 226.056 224.15 223.95 225.038 221.952C226.345 219.354 228.22 218.483 230.66 217.147C233.101 215.811 234.867 213.743 234.002 210.926C233.595 209.591 231.489 210.164 231.903 211.507Z" fill="#F9F9FC"/>
<path d="M235.535 210.048C235.015 210.12 234.541 210.383 234.205 210.786C233.869 211.188 233.696 211.702 233.719 212.226C233.719 213.089 234.293 213.641 234.685 214.331C235.616 215.742 236.327 217.286 236.792 218.911C237.14 220.472 237.482 223.266 236.668 224.718C235.164 227.411 232.448 226.896 230.13 226.896C227.951 226.896 226.265 227.621 226.338 224.587C226.382 222.881 227.573 221.154 228.517 219.811L226.527 219.55C226.947 221.766 227.168 224.016 227.188 226.271C227.188 227.28 228.735 227.839 229.215 226.816C230.383 224.361 231.31 221.799 231.983 219.165L229.84 218.875L230.217 224.391C230.224 224.627 230.306 224.854 230.451 225.039C230.597 225.224 230.798 225.358 231.026 225.42C231.253 225.482 231.494 225.469 231.714 225.383C231.933 225.297 232.119 225.143 232.244 224.943C232.499 224.662 232.685 224.327 232.789 223.963C232.862 223.622 232.193 221.321 231.925 222.141L234.06 222.431L234.213 217.191L232.033 217.481C232.494 218.959 232.633 220.518 232.44 222.054C232.302 223.266 234.344 223.542 234.62 222.344L235.985 215.303L233.995 215.557C234.468 216.531 234.598 217.636 234.365 218.693C234.206 220.087 236.385 220.072 236.545 218.693C236.73 217.248 236.498 215.78 235.876 214.461C235.766 214.28 235.605 214.134 235.413 214.042C235.221 213.95 235.007 213.916 234.796 213.943C234.585 213.971 234.387 214.06 234.225 214.198C234.063 214.336 233.946 214.519 233.886 214.723L232.513 221.764L234.656 222.054C234.874 220.324 234.708 218.566 234.169 216.908C234.096 216.658 233.936 216.442 233.718 216.3C233.5 216.157 233.238 216.098 232.98 216.132C232.721 216.167 232.484 216.292 232.31 216.486C232.137 216.68 232.039 216.93 232.033 217.191L231.881 222.431C231.881 223.702 233.646 223.883 234.024 222.722L234.14 222.366C234.19 222.181 234.191 221.985 234.143 221.8C234.095 221.614 233.998 221.444 233.864 221.306C231.605 218.853 231.147 222.758 230.363 223.84L232.397 224.391L232.019 218.875C231.939 217.699 230.196 217.336 229.876 218.584C229.262 221.04 228.41 223.429 227.333 225.72L229.367 226.271C229.344 223.82 229.101 221.377 228.641 218.969C228.452 217.967 227.137 218.011 226.651 218.708C225.198 220.798 222.684 225.364 224.624 227.868C226.316 230.046 231.641 229.204 233.915 229.066C237.504 228.863 238.804 226.591 239.196 223.208C239.383 221.588 239.292 219.949 238.927 218.359C238.731 217.503 236.748 212.073 236.152 212.182C237.533 211.928 236.944 209.823 235.571 210.077L235.535 210.048Z" fill="#F9F9FC"/>
<path d="M231.314 214.94L225.365 222.787L227.246 223.883L231.605 217.583L229.614 216.741L227.442 225.023C227.384 225.274 227.416 225.538 227.533 225.768C227.65 225.998 227.845 226.18 228.083 226.28C228.321 226.381 228.587 226.395 228.834 226.319C229.081 226.243 229.293 226.082 229.433 225.865C230.421 224.228 231.531 222.668 232.753 221.197L230.937 220.138C230.449 222.013 229.508 223.74 228.198 225.168L230.021 226.228C230.133 225.225 230.4 224.245 230.813 223.324C231.372 222.069 229.6 220.958 228.932 222.221C228.317 223.371 227.615 224.473 226.832 225.516L228.823 225.778L229.266 223.709L227.275 223.448L227.595 225.262C227.647 225.445 227.746 225.611 227.882 225.744C228.018 225.876 228.186 225.972 228.37 226.02C228.554 226.068 228.747 226.068 228.931 226.019C229.115 225.97 229.283 225.875 229.418 225.741C231.261 223.836 232.738 221.61 233.777 219.172H231.903C232.395 220.08 232.741 221.06 232.927 222.076C233.189 223.382 234.925 222.896 235.063 221.785C235.375 219.354 235.535 216.905 235.542 214.454H233.363V219.02C233.363 220.203 235.302 220.551 235.506 219.31C235.65 218.209 236.013 217.148 236.574 216.189H234.663C235.124 216.931 235.375 217.784 235.39 218.657C235.39 218.946 235.504 219.223 235.709 219.427C235.913 219.631 236.19 219.746 236.479 219.746C236.768 219.746 237.045 219.631 237.25 219.427C237.454 219.223 237.569 218.946 237.569 218.657L237.845 217.205H235.746C235.956 218.49 236.755 225.727 233.915 224.878C233.435 224.762 233.297 224.791 233.501 224.958L234.147 223.578L235.666 220.363L233.632 219.811C233.762 221.306 233.9 223.44 233 224.718C232.273 225.756 230.036 226.17 228.895 225.56C228.142 225.024 227.499 224.349 226.999 223.571L225.51 225.023C226.716 225.901 228.67 228.057 230.225 228.18C231.409 228.275 232.404 227.295 233.181 226.511C234.374 225.28 235.303 223.819 235.914 222.219C236.524 220.618 236.803 218.91 236.734 217.198C236.734 216.909 236.619 216.632 236.414 216.428C236.21 216.224 235.933 216.109 235.644 216.109C235.355 216.109 235.078 216.224 234.873 216.428C234.669 216.632 234.554 216.909 234.554 217.198V219.68C234.554 219.969 234.669 220.246 234.873 220.45C235.078 220.654 235.355 220.769 235.644 220.769C235.933 220.769 236.21 220.654 236.414 220.45C236.619 220.246 236.734 219.969 236.734 219.68V213.59C236.734 213.301 236.619 213.025 236.414 212.82C236.21 212.616 235.933 212.501 235.644 212.501C235.355 212.501 235.078 212.616 234.873 212.82C234.669 213.025 234.554 213.301 234.554 213.59C234.55 215.05 234.424 216.507 234.176 217.946L236.319 218.236C236.149 216.502 236.069 214.759 236.08 213.017C236.076 212.756 235.979 212.505 235.806 212.31C235.633 212.114 235.396 211.987 235.137 211.952C234.878 211.917 234.616 211.976 234.397 212.118C234.178 212.26 234.017 212.476 233.944 212.726C233.617 214.113 233.218 215.478 232.833 216.835L234.823 216.574L234.67 215.993C234.569 214.606 232.389 214.599 232.491 215.993C232.515 216.581 232.669 217.156 232.942 217.677C233.363 218.563 234.678 218.25 234.932 217.416C235.346 216.051 235.717 214.686 236.043 213.307L233.9 213.017C233.889 214.759 233.97 216.502 234.14 218.236C234.249 219.354 236.051 219.833 236.276 218.526C236.566 216.887 236.719 215.226 236.734 213.561H234.554V219.651H236.734V217.169H234.554C234.682 219.907 233.73 222.586 231.903 224.631C231.62 224.952 231.314 225.253 230.987 225.531C230.472 226.025 229.999 225.952 229.585 225.306C228.554 224.878 227.486 223.774 226.585 223.128C225.684 222.482 224.449 223.76 225.089 224.616C226.759 226.838 229.251 229.313 232.353 228.246C235.615 227.092 236.058 222.678 235.811 219.775C235.731 218.809 234.285 218.156 233.784 219.23C233.058 220.762 232.331 222.286 231.605 223.825C231.351 224.362 230.878 225.103 230.951 225.741C231.191 227.375 233.174 227.106 234.394 227.012C239.124 226.656 238.375 219.956 237.83 216.588C237.649 215.47 236.022 215.644 235.731 216.588C235.5 217.251 235.38 217.948 235.375 218.65H237.554C237.475 217.401 237.126 216.185 236.53 215.086C236.433 214.923 236.295 214.789 236.13 214.696C235.965 214.602 235.779 214.553 235.589 214.553C235.4 214.553 235.214 214.602 235.049 214.696C234.884 214.789 234.746 214.923 234.649 215.086C233.999 216.206 233.561 217.436 233.356 218.715L235.535 219.005V214.44C235.535 214.151 235.42 213.874 235.216 213.67C235.011 213.465 234.734 213.351 234.445 213.351C234.156 213.351 233.879 213.465 233.675 213.67C233.47 213.874 233.356 214.151 233.356 214.44C233.348 216.891 233.188 219.339 232.876 221.771L235.019 221.481C234.773 220.294 234.354 219.149 233.777 218.083C233.679 217.921 233.542 217.787 233.377 217.693C233.212 217.6 233.026 217.551 232.836 217.551C232.647 217.551 232.46 217.6 232.296 217.693C232.131 217.787 231.993 217.921 231.895 218.083C230.948 220.357 229.586 222.434 227.878 224.21L229.702 224.689L229.382 222.874C229.215 221.909 227.849 221.88 227.391 222.613C227.03 223.159 226.785 223.773 226.672 224.417C226.558 225.061 226.578 225.722 226.73 226.358C226.912 227.389 228.22 227.28 228.721 226.62C229.504 225.579 230.206 224.48 230.82 223.332L228.939 222.228C228.436 223.313 228.094 224.464 227.922 225.647C227.791 226.605 228.932 227.607 229.745 226.707C231.307 224.999 232.438 222.944 233.043 220.711C233.312 219.724 231.946 218.788 231.22 219.651C229.883 221.252 228.669 222.95 227.588 224.732L229.578 225.575L231.794 217.321C231.852 217.07 231.82 216.806 231.703 216.576C231.586 216.346 231.391 216.164 231.153 216.064C230.915 215.963 230.649 215.95 230.402 216.026C230.155 216.102 229.943 216.262 229.803 216.479L225.445 222.787C224.631 223.956 226.498 224.965 227.326 223.883L233.254 216.044C234.097 214.926 232.208 213.866 231.372 214.94H231.314Z" fill="#F9F9FC"/>
<path d="M323.994 241.137C332.711 235.809 339.641 227.861 347.342 221.212C355.696 214.004 364.464 207.29 373.494 200.931C391.03 188.591 409.445 177.55 427.846 166.539C428.085 166.388 428.255 166.151 428.322 165.877C428.389 165.603 428.347 165.314 428.205 165.07C428.063 164.827 427.832 164.648 427.56 164.571C427.289 164.494 426.998 164.526 426.749 164.659C408.348 175.67 389.926 186.689 372.39 199.051C364.115 204.858 356.037 211.013 348.293 217.546C339.867 224.66 332.363 233.516 322.868 239.257C321.669 239.983 322.766 241.871 323.965 241.137H323.994Z" fill="#F9F9FC"/>
<path d="M455.981 132.727C446.538 133.685 436.367 136.088 430.556 144.341C425.536 151.44 425.645 163.824 430.36 171.112C435.714 179.394 446.654 179.692 455.153 177.013C463.653 174.335 472.45 169.638 472.37 159.49C472.326 154.046 470.358 148.377 468.186 143.441C466.311 139.18 462.992 135.457 457.965 135.928C456.577 136.059 456.563 138.237 457.965 138.106C464.699 137.482 466.864 145.474 468.462 150.519C469.915 155.229 471.258 160.804 468.977 165.486C466.696 170.168 461.197 172.556 456.497 174.269C451.412 176.113 445.826 177.238 440.515 175.721C429.997 172.781 427.091 159.461 430.12 150.01C433.607 139.122 445.957 135.921 456.018 134.905C457.398 134.767 457.413 132.589 456.018 132.727H455.981Z" fill="#F9F9FC"/>
<path d="M470.51 216.929C461.067 217.887 450.896 220.29 445.085 228.543C440.065 235.642 440.174 248.026 444.889 255.314C450.243 263.596 461.183 263.894 469.682 261.215C478.182 258.537 486.979 253.84 486.899 243.693C486.855 238.248 484.887 232.579 482.715 227.643C480.84 223.382 477.52 219.659 472.493 220.13C471.106 220.261 471.091 222.439 472.493 222.308C479.228 221.684 481.392 229.676 482.991 234.721C484.443 239.432 485.787 245.006 483.506 249.688C481.225 254.37 475.726 256.758 471.026 258.471C465.941 260.315 460.355 261.44 455.044 259.923C444.525 256.983 441.62 243.663 444.649 234.213C448.136 223.324 460.485 220.123 470.547 219.107C471.927 218.969 471.941 216.791 470.547 216.929H470.51Z" fill="#F9F9FC"/>
<path d="M441.736 153.93L448.615 161.77C448.751 161.901 448.919 161.995 449.103 162.042C449.286 162.089 449.478 162.089 449.661 162.04C449.844 161.991 450.011 161.895 450.146 161.763C450.281 161.63 450.379 161.465 450.431 161.283C451.884 157.465 451.608 153.509 451.95 149.495C452.326 145.346 453.369 141.285 455.037 137.467C458.389 129.724 464.071 123.216 471.295 118.848C472.493 118.122 471.397 116.235 470.198 116.968C463.075 121.254 457.361 127.526 453.758 135.014C451.995 138.657 450.771 142.538 450.126 146.533C449.4 151.244 450.061 156.18 448.317 160.703L450.141 160.216L443.298 152.391C442.368 151.339 440.835 152.885 441.758 153.93H441.736Z" fill="#F9F9FC"/>
<path d="M327.503 249.623C364.973 248.481 402.452 248.239 439.942 248.897C441.344 248.897 441.344 246.719 439.942 246.719C402.462 246.052 364.982 246.294 327.503 247.445C326.101 247.489 326.093 249.666 327.503 249.623Z" fill="#F9F9FC"/>
<path d="M447.773 228.151C460.582 233.175 472.903 239.361 484.582 246.632C485.773 247.358 486.87 245.493 485.678 244.752C473.846 237.391 461.362 231.132 448.383 226.054C447.082 225.538 446.516 227.643 447.809 228.151H447.773Z" fill="#F9F9FC"/>
<path d="M471.033 218.287C458.044 233.417 450.52 252.47 449.669 272.387C449.611 273.787 451.79 273.787 451.848 272.387C452.673 253.042 459.971 234.534 472.573 219.826C473.481 218.766 471.949 217.22 471.033 218.287Z" fill="#F9F9FC"/>
<path d="M180.492 241.718L261.687 240.658L271.022 240.535C272.7 240.535 274.378 240.477 276.056 240.47C278.417 240.47 280.008 242.429 279.964 244.825C279.855 249.906 276.659 249.725 272.475 249.906L262.384 250.363L221.297 252.171C213.938 252.497 206.572 252.897 199.213 253.151C192.573 253.354 179.947 251.191 182.897 241.537C183.304 240.194 181.204 239.62 180.79 240.956C179.337 245.703 181.909 250.523 186.05 253.013C191.927 256.541 199.67 255.343 206.158 255.053L256.602 252.766L268.85 252.222C271.988 252.076 276.354 252.715 279.238 251.256C282.623 249.55 283.219 242.778 281.083 239.925C279.986 238.473 278.446 238.343 276.724 238.277C272.206 238.103 267.607 238.401 263.082 238.459L237.932 238.793L180.463 239.519C179.061 239.519 179.061 241.696 180.463 241.696L180.492 241.718Z" fill="#FCFDFF"/>
<path d="M508.54 508.479C506.709 509.626 504.617 510.272 502.728 511.281C500.839 512.29 499.001 513.807 498.464 515.898C498.263 516.546 498.297 517.245 498.558 517.872C499.028 518.629 499.747 519.199 500.592 519.483C504.429 521.186 508.574 522.089 512.772 522.136C516.97 522.184 521.134 521.375 525.008 519.759C526.371 519.104 527.779 518.547 529.221 518.09C530.998 517.728 532.806 517.543 534.619 517.538C536.525 517.427 538.42 517.184 540.292 516.812C541.234 516.707 542.126 516.337 542.864 515.745C543.538 514.969 543.943 513.997 544.019 512.972C544.879 507.317 543.583 501.545 540.387 496.8C539.984 496.135 539.444 495.563 538.803 495.123C538.021 494.719 537.162 494.489 536.282 494.448C532.65 494.005 528.844 493.192 525.175 493.105C522.545 493.047 521.223 494.295 519.364 496.103C515.521 499.943 513.276 505.525 508.54 508.479Z" fill="#323444"/>
<path d="M562.071 507.942C562.071 511.499 562.5 515.266 564.657 518.104C565.644 519.332 566.839 520.376 568.188 521.189C572.75 524.093 578.794 525.16 583.603 522.699C584.38 522.351 585.044 521.793 585.521 521.088C586.247 519.825 585.862 518.249 585.455 516.856L578.496 492.757C573.999 493.446 567.389 493.932 563.393 496.212C560.495 497.859 562.071 504.763 562.071 507.942Z" fill="#323444"/>
<path d="M504.457 359.55C504.036 360.879 502.51 361.496 501.675 362.613C500.694 363.927 500.796 365.749 501.152 367.346C501.591 369.701 502.698 371.88 504.341 373.625C505.174 374.489 506.203 375.142 507.34 375.528C508.477 375.915 509.691 376.024 510.879 375.846C513.218 375.403 515.237 373.335 515.317 370.961C515.275 369.882 515.044 368.818 514.634 367.818L509.68 353.504C509.66 353.402 509.618 353.307 509.558 353.223C509.498 353.139 509.421 353.069 509.331 353.017C509.144 352.976 508.949 353.01 508.787 353.112C507.617 353.663 505.271 354.244 504.588 355.456C503.905 356.668 504.951 358.236 504.457 359.55Z" fill="#FBB3B2"/>
<path d="M502.14 358.832C503.948 358.549 505.532 357.489 507.225 356.792C508.917 356.095 511.039 355.826 512.462 356.988C512.869 357.322 513.261 357.779 513.792 357.772C513.07 354.222 511.98 350.758 510.537 347.435C510.487 347.276 510.388 347.137 510.254 347.036C510.056 346.956 509.835 346.956 509.637 347.036L504.748 348.314C502.939 348.785 502.728 348.64 502.866 350.419C502.902 351.21 503.309 358.832 502.14 358.832Z" fill="#323444"/>
<path d="M501.602 255.466C500.876 256.584 500.876 257.978 500.876 259.292C500.876 265.716 500.941 272.176 501.893 278.535C502.118 280.059 502.401 281.583 502.546 283.122C502.711 285.264 502.745 287.415 502.648 289.561L501.922 317.507C501.835 320.926 501.66 324.599 499.546 327.285C498.905 328.185 498.604 329.283 498.696 330.384C499.248 337.396 500.411 344.35 501.566 351.282C503.426 350.444 505.457 350.058 507.495 350.155C509.533 350.252 511.519 350.83 513.291 351.841C516.956 340.326 518.983 328.353 519.313 316.273C519.48 310.328 519.226 304.347 520.141 298.475C521.674 288.588 521.049 278.448 519.923 268.503C519.567 265.353 518.812 262.108 516.792 259.669C514.88 257.535 512.334 256.07 509.528 255.488C506.84 254.784 504.435 255.51 501.602 255.466Z" fill="#5B5583"/>
<path opacity="0.1" d="M501.602 255.466C500.876 256.584 500.876 257.978 500.876 259.292C500.876 265.716 500.941 272.176 501.893 278.535C502.118 280.059 502.401 281.583 502.546 283.122C502.711 285.264 502.745 287.415 502.648 289.561L501.922 317.507C501.835 320.926 501.66 324.599 499.546 327.285C498.905 328.185 498.604 329.283 498.696 330.384C499.248 337.396 500.411 344.35 501.566 351.282C503.426 350.444 505.457 350.058 507.495 350.155C509.533 350.252 511.519 350.83 513.291 351.841C516.956 340.326 518.983 328.353 519.313 316.273C519.48 310.328 519.226 304.347 520.141 298.475C521.674 288.588 521.049 278.448 519.923 268.503C519.567 265.353 518.812 262.108 516.792 259.669C514.88 257.535 512.334 256.07 509.528 255.488C506.84 254.784 504.435 255.51 501.602 255.466Z" fill="black"/>
<path d="M510.479 336.511C505.607 361.459 508.267 387.291 518.121 410.725C518.973 412.46 519.57 414.308 519.894 416.212C520.294 419.769 518.652 423.188 517.715 426.629C515.535 434.454 516.792 442.787 518.187 450.793C518.768 454.132 519.366 457.469 519.981 460.803C520.584 464.055 521.165 467.59 519.654 470.537C520.955 475.952 521.725 481.317 523.025 486.732C523.163 487.16 523.205 487.614 523.148 488.06C522.886 488.769 522.425 489.386 521.819 489.838C520.85 490.82 520.153 492.037 519.798 493.37C519.442 494.703 519.441 496.105 519.792 497.438C523.112 495.058 527.74 495.892 531.532 497.438C535.324 498.985 539.058 501.068 543.155 501.068C542.559 496.262 541.985 491.218 543.758 486.71C544.789 484.097 546.605 481.629 546.554 478.834C546.504 476.33 544.971 474.094 544.6 471.619C544.463 470.079 544.521 468.528 544.775 467.002C545.748 458.117 544.644 449.146 543.54 440.275C543.415 438.526 543.003 436.809 542.319 435.194C541.803 434.149 541.033 433.147 541.048 431.979C541.048 430.621 542.145 429.518 542.552 428.226C543.278 425.845 541.942 422.607 543.954 421.134C549.257 417.243 547.223 407.952 547.107 401.383C547.015 395.716 546.772 390.054 546.38 384.397C549.719 393.778 551.084 403.747 550.39 413.679C550.158 416.931 549.729 420.35 551 423.355C551.974 425.663 553.906 427.565 554.429 430.011C554.756 431.521 554.524 433.082 554.596 434.621C554.669 436.16 555.192 437.836 556.521 438.613C556.623 445.611 557.248 453.094 557.357 460.092C557.286 463.669 557.578 467.244 558.228 470.762C558.554 471.881 558.735 473.038 558.766 474.203C558.602 475.664 558.215 477.091 557.618 478.435C556.352 482.181 556.021 486.179 556.654 490.082C557.287 493.985 558.865 497.674 561.25 500.828C562.965 497.787 566.539 496.175 570.026 495.921C573.513 495.667 576.956 496.546 580.334 497.431C579.818 493.19 580.662 488.895 582.746 485.164C583.305 484.323 583.733 483.403 584.017 482.434C584.409 480.591 583.494 478.754 583 476.932C582.194 474.029 582.477 470.9 582.666 467.866C583.3 457.704 582.849 447.504 581.322 437.437C581.086 435.454 580.621 433.506 579.935 431.63C579.673 430.962 579.353 430.324 579.135 429.648C578.793 428.438 578.597 427.19 578.554 425.932L577.719 414.318C577.13 406.181 579.804 398.145 581.671 390.204C582.506 386.647 583.414 383.098 583.974 379.483C584.736 374.561 584.86 369.531 585.979 364.675C586.981 360.32 588.79 356.073 589.168 351.609C589.749 344.691 586.872 338.006 584.082 331.662C582.92 329.049 578.525 329.31 575.699 328.845C555.657 325.557 534.546 325.535 515.644 332.947C513.69 333.756 511.929 334.971 510.479 336.511Z" fill="#3C354C"/>
<path d="M524.928 207.674L527.151 216.312C527.755 218.293 528.09 220.347 528.146 222.417C528.169 223.172 528.002 223.921 527.66 224.595C527.294 225.148 526.825 225.626 526.279 226.003C524.761 227.157 523.708 229.85 521.972 230.648C522.865 232.202 524.1 231.193 525.713 231.97C528.553 233.349 531.154 235.33 534.234 236.013C537.14 236.651 540.191 236.049 543.075 235.287C547.165 234.176 551.233 232.645 554.523 229.966C557.814 227.288 559.689 224.921 559.674 220.689C556.042 221.118 552.809 217.452 551.204 214.156C550.647 212.904 550.237 211.591 549.983 210.244L548.036 201.686C545.915 202.15 544.186 203.667 542.159 204.459C540.133 205.25 537.735 205.322 535.483 205.424C531.486 205.606 527.511 206.121 523.599 206.963C523.061 207.072 522.386 207.413 522.516 207.936" fill="#FBB3B2"/>
<path opacity="0.1" d="M524.928 207.674L527.151 216.312C527.755 218.293 528.09 220.347 528.146 222.417C528.169 223.172 528.002 223.921 527.66 224.595C527.294 225.148 526.825 225.626 526.279 226.003C524.761 227.157 523.708 229.85 521.972 230.648C522.865 232.202 524.1 231.193 525.713 231.97C528.553 233.349 531.154 235.33 534.234 236.013C537.14 236.651 540.191 236.049 543.075 235.287C547.165 234.176 551.233 232.645 554.523 229.966C557.814 227.288 559.689 224.921 559.674 220.689C556.042 221.118 552.809 217.452 551.204 214.156C550.647 212.904 550.237 211.591 549.983 210.244L548.036 201.686C545.915 202.15 544.186 203.667 542.159 204.459C540.133 205.25 537.735 205.322 535.483 205.424C531.486 205.606 527.511 206.121 523.599 206.963C523.061 207.072 522.386 207.413 522.516 207.936" fill="black"/>
<path d="M534.474 212.436C545.098 212.436 553.71 203.83 553.71 193.215C553.71 182.599 545.098 173.993 534.474 173.993C523.85 173.993 515.237 182.599 515.237 193.215C515.237 203.83 523.85 212.436 534.474 212.436Z" fill="#FBB3B2"/>
<path d="M539.769 224.899C540.798 222.679 542.283 220.701 544.128 219.092C546.838 216.719 550.543 214.795 551.182 211.253L557.051 218.083C557.37 218.4 557.618 218.781 557.778 219.201C557.852 219.595 557.841 220 557.746 220.39C557.651 220.779 557.473 221.143 557.226 221.459C555.773 223.774 553.485 225.429 551.32 227.106C546.358 231.033 541.608 235.22 537.089 239.649C536.89 239.88 536.623 240.043 536.326 240.114C536.045 240.122 535.769 240.043 535.534 239.889C531.635 237.843 528.185 235.04 525.386 231.643C525.175 231.389 524.914 231.098 524.572 231.12C524.366 231.158 524.177 231.257 524.027 231.403C522.073 233 519.937 234.909 517.431 234.663C520.678 232.332 522.516 228.442 523.199 224.5C523.334 223.151 523.612 221.82 524.027 220.53C524.243 219.884 524.614 219.301 525.108 218.833C525.602 218.364 526.204 218.025 526.861 217.844C525.277 220.261 526.359 223.687 528.488 225.64C530.556 227.394 533.035 228.595 535.694 229.131C538.164 229.596 538.89 226.801 539.769 224.899Z" fill="#323444"/>
<path d="M514.743 338.485C517.482 339.16 520.076 340.307 522.734 341.156C527.58 342.673 532.68 343.208 537.735 342.732C539.291 342.697 540.805 342.216 542.094 341.345C542.435 341.069 542.748 340.743 543.111 340.489C543.719 340.124 544.377 339.853 545.065 339.683C551.727 337.6 557.306 333.106 562.718 328.708C562.892 328.562 563.088 328.381 563.074 328.149C563.049 327.991 562.972 327.845 562.856 327.735L560.008 324.468C552.54 325.739 544.891 325.26 537.314 325.071C535.758 325.002 534.2 325.043 532.65 325.194C531.154 325.369 529.679 325.746 528.204 326.065C522.604 327.285 516.879 327.749 511.206 328.548C510.809 328.577 510.424 328.696 510.08 328.896C509.84 329.081 509.636 329.307 509.477 329.564L507.486 332.359C506.714 333.299 506.145 334.389 505.815 335.56C505.351 337.738 506.324 338.463 508.176 338.18C510.365 337.86 512.594 337.964 514.743 338.485Z" fill="#323444"/>
<path d="M537.009 236.325C534.787 234.049 532.267 232.084 529.519 230.481C528.409 229.777 527.177 229.285 525.887 229.03C525.238 228.902 524.568 228.917 523.926 229.075C523.283 229.233 522.683 229.53 522.168 229.944C521.521 230.518 521.114 231.316 520.49 231.919C519.703 232.579 518.802 233.088 517.831 233.421C514.524 234.833 511.39 236.618 508.489 238.742C506.907 239.847 505.483 241.161 504.254 242.647C500.963 246.857 500.469 252.585 500.556 257.927C500.621 261.643 504.188 264.402 506.644 267.182C508.946 269.918 511.031 272.83 512.876 275.893C514.199 277.983 515.579 280.248 515.412 282.738C515.274 284.777 514.082 286.694 514.271 288.726C514.337 289.452 514.569 290.12 514.634 290.824C514.765 292.276 514.191 293.727 514.046 295.179C513.85 297.233 514.518 299.273 514.555 301.342C514.528 302.758 514.348 304.167 514.017 305.545C512.622 312.179 510.871 318.85 511.227 325.623L507.203 326.348C507.584 326.722 507.872 327.18 508.043 327.685C508.215 328.19 508.264 328.728 508.189 329.256C508.113 329.784 507.914 330.287 507.608 330.724C507.301 331.161 506.896 331.519 506.426 331.771C512.709 333.869 519.502 332.809 526.163 332.802C531.677 332.802 537.169 333.527 542.675 333.426C548.182 333.324 553.862 332.33 558.403 329.216C559.638 328.374 560.771 327.386 562.071 326.653C563.813 325.751 565.69 325.139 567.628 324.839C571.219 324.154 574.87 323.828 578.525 323.866C580.312 323.866 582.259 323.939 583.683 322.864C585.252 321.674 585.652 319.518 585.862 317.565C586.073 315.504 586.204 313.435 586.24 311.366C586.301 309.755 586.216 308.142 585.986 306.546C585.768 305.38 585.484 304.226 585.136 303.091L582.397 293.452C581.264 289.474 582.84 285.111 583.174 280.988C583.254 280.016 583.269 278.883 582.521 278.259C582.252 278.034 581.881 277.881 581.794 277.533C581.755 277.368 581.75 277.196 581.78 277.029C581.81 276.861 581.874 276.702 581.968 276.56C583.421 273.657 585.601 271.094 587.591 268.474C590.934 263.878 594.038 259.112 596.89 254.196C595.997 243.909 591.661 234.223 584.584 226.7C583.131 225.124 581.467 223.615 579.433 222.903C578.104 222.498 576.725 222.275 575.336 222.243C569.641 221.858 563.713 221.517 558.751 218.657C558.395 218.41 557.992 218.24 557.567 218.156C556.47 218.033 555.671 219.114 554.959 219.971C553.129 222.148 550.434 223.397 548.065 225.001C543.649 227.999 540.198 232.122 537.009 236.325Z" fill="#5B5583"/>
<path d="M597.384 257.165C598.517 260.751 598.408 264.583 598.778 268.322C598.998 270.578 599.394 272.813 599.962 275.007C600.222 276.213 600.689 277.365 601.343 278.411C601.997 279.37 602.934 280.146 603.348 281.228C603.574 281.96 603.675 282.726 603.646 283.493L603.733 288.501C603.919 291.155 603.515 293.818 602.549 296.297L599.418 305.813C597.725 310.967 595.989 316.201 592.938 320.687C592.508 321.446 591.857 322.056 591.071 322.436C590.456 322.598 589.825 322.696 589.189 322.726C588.082 322.924 587.078 323.501 586.35 324.358C585.622 325.215 585.216 326.299 585.201 327.423C584.474 326.361 583.567 325.435 582.521 324.686L576.15 319.605C573.97 317.834 571.697 316.034 569.052 315.01C572.609 313.9 575.766 311.783 578.142 308.915C580.517 306.046 582.008 302.551 582.433 298.852C582.431 297.751 582.68 296.664 583.16 295.673C583.69 294.816 584.671 294.163 584.744 293.154C584.831 291.884 583.392 290.926 583.392 289.655C583.392 288.813 584.017 288.116 584.293 287.325C584.551 286.347 584.551 285.32 584.293 284.342L583.414 279.464C583.362 278.975 583.214 278.501 582.978 278.07C582.649 277.657 582.285 277.273 581.889 276.923C580.378 275.232 581.046 272.568 581.889 270.485C583.824 265.86 586.317 261.49 589.313 257.47C590.379 256.12 591.366 254.709 592.269 253.245C593.039 251.909 593.214 250.058 594.027 248.89C595.074 251.634 596.49 254.341 597.384 257.165Z" fill="#5B5583"/>
<path d="M568.827 315.308C568.503 315.548 568.223 315.843 567.999 316.179C567.143 317.253 566.003 318.065 564.708 318.523C565.435 319.046 566.096 319.561 566.779 320.091C571.831 323.99 576.457 328.411 580.581 333.281C581.039 331.647 583.777 331.764 584.446 330.203C584.603 329.756 584.653 329.279 584.591 328.809C584.452 326.364 584.102 323.935 583.545 321.55C583.325 320.322 582.828 319.161 582.092 318.153C581.075 316.927 579.491 316.339 577.98 315.83C575.692 315.032 571.152 313.907 568.827 315.308Z" fill="#323444"/>
<path d="M559.747 321.013C557.567 322.625 555.657 324.643 553.209 325.746C551.48 326.53 549.511 326.871 548 328.04C548.821 329.847 550.957 330.784 552.94 330.711C554.925 330.516 556.827 329.819 558.468 328.686C559.768 327.887 561.294 326.958 562.71 327.517C562.928 328.62 561.984 329.658 561.984 330.776C561.984 331.894 562.914 332.707 563.829 333.295C568.188 336.104 573.796 335.872 578.99 335.545C579.288 335.556 579.581 335.47 579.825 335.299C579.938 335.167 580.024 335.015 580.077 334.851C580.131 334.686 580.151 334.513 580.138 334.34C580.203 333.193 580.232 332.054 580.24 330.907C580.386 329.982 580.266 329.035 579.893 328.176C579.52 327.317 578.909 326.582 578.133 326.058C575.314 323.637 572.274 321.486 569.052 319.634C565.856 317.783 562.616 318.879 559.747 321.013Z" fill="#FBB3B2"/>
<path d="M541.23 185.179C538.004 185.564 535.658 188.083 535.985 190.819C536.312 193.556 539.188 195.443 542.414 195.051C545.639 194.659 547.985 192.148 547.659 189.418C547.332 186.689 544.455 184.795 541.23 185.179ZM542.326 194.296C539.595 194.623 537.161 193.019 536.878 190.711C536.595 188.402 538.593 186.268 541.317 185.941C544.041 185.615 546.482 187.219 546.765 189.527C547.048 191.836 545.051 193.97 542.326 194.296Z" fill="#3C354C"/>
<path d="M525.509 187.067C522.284 187.451 519.937 189.97 520.264 192.699C520.591 195.429 523.468 197.323 526.693 196.939C529.919 196.554 532.265 194.035 531.938 191.298C531.612 188.562 528.735 186.682 525.509 187.067ZM526.606 196.176C523.875 196.503 521.441 194.899 521.165 192.598C520.889 190.297 522.872 188.155 525.604 187.821C528.335 187.488 530.769 189.099 531.045 191.407C531.321 193.716 529.33 195.85 526.606 196.176Z" fill="#3C354C"/>
<path d="M513.835 188.468L520.846 189.963L520.155 191.807L513.545 189.868L513.835 188.468Z" fill="#3C354C"/>
<path d="M552.911 183.778L546.445 186.892L547.557 188.518L553.521 185.07L552.911 183.778Z" fill="#3C354C"/>
<path d="M531.292 189.498L536.21 188.91L535.956 190.13L531.735 190.413L531.292 189.498Z" fill="#3C354C"/>
<path d="M521.754 187.851C522.216 186.856 522.464 185.775 522.48 184.678C522.497 184.022 522.61 183.372 522.814 182.748C523.171 181.955 523.715 181.26 524.398 180.722C526.664 178.806 529.912 177.819 533.115 177.681C536.608 177.52 540.083 178.271 543.198 179.859C544.15 180.304 545.002 180.936 545.704 181.717C546.721 182.958 546.939 184.562 547.964 185.789C548.663 186.533 549.542 187.085 550.517 187.39C551.492 187.695 552.529 187.744 553.528 187.531C553.884 186.268 553.419 184.932 553.601 183.64C553.887 182.533 554.274 181.455 554.756 180.417C555.882 177.1 554.24 173.253 550.855 171.271C549.671 170.546 548.269 170.074 547.383 169.094C546.496 168.114 546.286 167.098 545.675 166.118C544.055 163.526 539.864 162.314 536.675 163.512C535.672 163.889 534.786 164.463 533.769 164.869C531.88 165.646 529.73 165.784 527.652 166.045C525.604 166.234 523.602 166.759 521.725 167.598C519.93 168.484 518.426 169.907 518.012 171.605C517.816 172.389 517.86 173.202 517.664 173.979C516.661 177.92 510.189 179.837 509.825 183.858C509.695 185.31 510.486 186.704 511.474 187.887C512.157 188.693 513.792 190.848 514.947 191.161C516.102 191.473 516.981 190.377 518.085 189.999C519.829 189.455 520.882 189.339 521.754 187.851Z" fill="#CBCEDA"/>
</svg>
