<svg width="765" height="700" viewBox="0 0 765 700" fill="none" xmlns="http://www.w3.org/2000/svg">
<path d="M33.175 0H765V700H97.0022C97.0022 700 -21.9225 561.418 3.58657 467.5C14.6904 426.618 62.859 416.147 58.5866 374C54.9235 337.864 11.5081 334.447 3.58657 299C-10.717 234.996 91.057 224.805 97.0866 159.5C103.337 91.8028 33.175 0 33.175 0Z" fill="#F0F0F5"/>
<path d="M58.5044 0H765V700H131.004C131.004 700 12.0797 561.418 37.5888 467.5C48.6926 426.618 96.8612 416.147 92.5888 374C88.9257 337.864 45.5103 334.447 37.5888 299C23.2852 234.996 125.059 224.805 131.089 159.5C137.339 91.8028 58.5044 0 58.5044 0Z" fill="#E5E5EC"/>
<path d="M496.102 566.857L359.256 565.102L359.656 561.59L366.274 503.651H486.452L495.295 561.59L495.968 565.979L496.102 566.857Z" fill="#D0D2D5"/>
<path opacity="0.1" d="M495.968 565.979H427.679L359.256 565.102L359.656 561.59H495.294L495.968 565.979Z" fill="black"/>
<path d="M518.032 562.468H336.449V566.857H518.032V562.468Z" fill="#D0D2D5"/>
<path d="M691.278 155.65C691.285 154.149 690.997 152.662 690.43 151.273C689.863 149.884 689.028 148.62 687.973 147.554C686.918 146.488 685.664 145.64 684.281 145.059C682.899 144.478 681.416 144.175 679.916 144.167H172.81C171.31 144.174 169.826 144.476 168.443 145.057C167.06 145.637 165.804 146.485 164.748 147.551C163.693 148.618 162.857 149.882 162.29 151.271C161.722 152.661 161.434 154.149 161.442 155.65V463.255H691.278V155.65Z" fill="#444053"/>
<path d="M161.442 460.2V496.228C161.442 499.245 162.639 502.139 164.771 504.273C166.903 506.406 169.795 507.605 172.81 507.605H679.916C682.93 507.603 685.82 506.403 687.95 504.27C690.081 502.137 691.278 499.244 691.278 496.228V460.2H161.442Z" fill="#D0D2D5"/>
<path opacity="0.1" d="M671.979 163.48H183.372V440.009H671.979V163.48Z" fill="#175190"/>
<path d="M428.991 493.931C430.785 493.932 432.556 493.526 434.171 492.742C435.785 491.959 437.201 490.819 438.311 489.408C438.648 488.978 438.955 488.525 439.23 488.053L432.732 486.985L439.749 487.042C440.426 485.574 440.795 483.983 440.834 482.367C440.873 480.75 440.58 479.144 439.974 477.645L430.549 482.561L439.244 476.17C438.427 474.768 437.331 473.548 436.024 472.588C434.716 471.627 433.225 470.945 431.644 470.585C430.062 470.225 428.423 470.193 426.829 470.493C425.235 470.793 423.719 471.418 422.376 472.328C421.034 473.239 419.892 474.416 419.022 475.786C418.153 477.156 417.574 478.691 417.322 480.294C417.069 481.898 417.149 483.536 417.556 485.108C417.962 486.679 418.687 488.15 419.686 489.429C420.796 490.835 422.21 491.97 423.822 492.75C425.433 493.53 427.201 493.934 428.991 493.931Z" fill="#FCFDFF"/>
<path opacity="0.1" d="M440.837 507.605L495.428 562.468L487.056 507.605H440.837Z" fill="black"/>
<path d="M516.607 213.372H199.548C198.54 213.372 197.723 214.189 197.723 215.197V403.974C197.723 404.983 198.54 405.8 199.548 405.8H516.607C517.615 405.8 518.432 404.983 518.432 403.974V215.197C518.432 214.189 517.615 213.372 516.607 213.372Z" fill="white"/>
<path d="M672.119 163.509H183.688V179.661H672.119V163.509Z" fill="white"/>
<path d="M199.281 166.318H186.34C186.038 166.318 185.793 166.563 185.793 166.866V175.602C185.793 175.905 186.038 176.15 186.34 176.15H199.281C199.583 176.15 199.828 175.905 199.828 175.602V166.866C199.828 166.563 199.583 166.318 199.281 166.318Z" fill="#175190"/>
<path opacity="0.3" d="M499.779 166.318H353.221C352.996 166.318 352.814 166.5 352.814 166.725V175.743C352.814 175.968 352.996 176.15 353.221 176.15H499.779C500.004 176.15 500.186 175.968 500.186 175.743V166.725C500.186 166.5 500.004 166.318 499.779 166.318Z" fill="#175190"/>
<path d="M495.814 172.245H495.456L495.323 172.133C495.773 171.598 496.021 170.922 496.024 170.223C496.02 169.648 495.846 169.088 495.524 168.612C495.202 168.137 494.746 167.767 494.215 167.551C493.683 167.334 493.099 167.28 492.537 167.395C491.974 167.51 491.459 167.789 491.055 168.198C490.651 168.606 490.377 169.125 490.267 169.688C490.158 170.252 490.217 170.836 490.439 171.366C490.661 171.896 491.034 172.348 491.512 172.666C491.99 172.984 492.552 173.152 493.126 173.151C493.825 173.147 494.5 172.898 495.035 172.449L495.168 172.561V172.926L497.414 175.174L498.116 174.471L495.814 172.245ZM493.119 172.245C492.717 172.247 492.324 172.128 491.99 171.906C491.655 171.684 491.394 171.367 491.24 170.995C491.085 170.624 491.045 170.216 491.123 169.821C491.201 169.427 491.394 169.065 491.678 168.78C491.962 168.496 492.324 168.303 492.718 168.225C493.112 168.146 493.52 168.187 493.891 168.342C494.262 168.496 494.579 168.757 494.801 169.092C495.024 169.427 495.141 169.821 495.14 170.223C495.142 170.489 495.091 170.753 494.99 170.999C494.889 171.245 494.74 171.469 494.552 171.657C494.364 171.845 494.141 171.994 493.895 172.095C493.649 172.196 493.385 172.247 493.119 172.245Z" fill="#444053"/>
<path d="M665.102 176.15C667.815 176.15 670.014 173.949 670.014 171.234C670.014 168.519 667.815 166.318 665.102 166.318C662.389 166.318 660.189 168.519 660.189 171.234C660.189 173.949 662.389 176.15 665.102 176.15Z" fill="#FF5271"/>
<path d="M585.5 197.219H543.296C542.354 197.219 541.59 197.983 541.59 198.925V226.413C541.59 227.356 542.354 228.12 543.296 228.12H585.5C586.442 228.12 587.205 227.356 587.205 226.413V198.925C587.205 197.983 586.442 197.219 585.5 197.219Z" fill="white"/>
<path d="M657.656 197.219H599.563C599.327 197.219 599.135 197.411 599.135 197.647V201.706C599.135 201.943 599.327 202.135 599.563 202.135H657.656C657.892 202.135 658.084 201.943 658.084 201.706V197.647C658.084 197.411 657.892 197.219 657.656 197.219Z" fill="white"/>
<path d="M657.656 207.753H599.563C599.327 207.753 599.135 207.945 599.135 208.182V212.241C599.135 212.477 599.327 212.669 599.563 212.669H657.656C657.892 212.669 658.084 212.477 658.084 212.241V208.182C658.084 207.945 657.892 207.753 657.656 207.753Z" fill="white"/>
<path d="M657.656 218.288H599.563C599.327 218.288 599.135 218.479 599.135 218.716V222.775C599.135 223.012 599.327 223.204 599.563 223.204H657.656C657.892 223.204 658.084 223.012 658.084 222.775V218.716C658.084 218.479 657.892 218.288 657.656 218.288Z" fill="white"/>
<path d="M585.5 245.677H543.296C542.354 245.677 541.59 246.441 541.59 247.384V274.871C541.59 275.814 542.354 276.578 543.296 276.578H585.5C586.442 276.578 587.205 275.814 587.205 274.871V247.384C587.205 246.441 586.442 245.677 585.5 245.677Z" fill="white"/>
<path d="M657.656 245.677H599.563C599.327 245.677 599.135 245.869 599.135 246.105V250.165C599.135 250.401 599.327 250.593 599.563 250.593H657.656C657.892 250.593 658.084 250.401 658.084 250.165V246.105C658.084 245.869 657.892 245.677 657.656 245.677Z" fill="white"/>
<path d="M657.656 256.211H599.563C599.327 256.211 599.135 256.403 599.135 256.64V260.699C599.135 260.936 599.327 261.128 599.563 261.128H657.656C657.892 261.128 658.084 260.936 658.084 260.699V256.64C658.084 256.403 657.892 256.211 657.656 256.211Z" fill="white"/>
<path d="M657.621 266.746H599.599C599.343 266.746 599.135 266.953 599.135 267.209V271.198C599.135 271.454 599.343 271.662 599.599 271.662H657.621C657.877 271.662 658.084 271.454 658.084 271.198V267.209C658.084 266.953 657.877 266.746 657.621 266.746Z" fill="white"/>
<path d="M585.5 294.135H543.296C542.354 294.135 541.59 294.899 541.59 295.842V323.33C541.59 324.272 542.354 325.036 543.296 325.036H585.5C586.442 325.036 587.205 324.272 587.205 323.33V295.842C587.205 294.899 586.442 294.135 585.5 294.135Z" fill="white"/>
<path d="M657.621 294.135H599.599C599.343 294.135 599.135 294.343 599.135 294.599V298.588C599.135 298.844 599.343 299.051 599.599 299.051H657.621C657.877 299.051 658.084 298.844 658.084 298.588V294.599C658.084 294.343 657.877 294.135 657.621 294.135Z" fill="white"/>
<path d="M657.621 304.67H599.599C599.343 304.67 599.135 304.877 599.135 305.133V309.122C599.135 309.378 599.343 309.586 599.599 309.586H657.621C657.877 309.586 658.084 309.378 658.084 309.122V305.133C658.084 304.877 657.877 304.67 657.621 304.67Z" fill="white"/>
<path d="M657.621 315.204H599.599C599.343 315.204 599.135 315.412 599.135 315.668V319.657C599.135 319.913 599.343 320.12 599.599 320.12H657.621C657.877 320.12 658.084 319.913 658.084 319.657V315.668C658.084 315.412 657.877 315.204 657.621 315.204Z" fill="white"/>
<path d="M585.5 342.594H543.296C542.354 342.594 541.59 343.358 541.59 344.3V371.788C541.59 372.731 542.354 373.495 543.296 373.495H585.5C586.442 373.495 587.205 372.731 587.205 371.788V344.3C587.205 343.358 586.442 342.594 585.5 342.594Z" fill="white"/>
<path d="M657.621 342.594H599.599C599.343 342.594 599.135 342.801 599.135 343.057V347.046C599.135 347.302 599.343 347.51 599.599 347.51H657.621C657.877 347.51 658.084 347.302 658.084 347.046V343.057C658.084 342.801 657.877 342.594 657.621 342.594Z" fill="white"/>
<path d="M657.621 353.128H599.599C599.343 353.128 599.135 353.336 599.135 353.592V357.581C599.135 357.837 599.343 358.044 599.599 358.044H657.621C657.877 358.044 658.084 357.837 658.084 357.581V353.592C658.084 353.336 657.877 353.128 657.621 353.128Z" fill="white"/>
<path d="M657.621 363.663H599.599C599.343 363.663 599.135 363.87 599.135 364.126V368.115C599.135 368.371 599.343 368.579 599.599 368.579H657.621C657.877 368.579 658.084 368.371 658.084 368.115V364.126C658.084 363.87 657.877 363.663 657.621 363.663Z" fill="white"/>
<path d="M585.5 391.052H543.296C542.354 391.052 541.59 391.816 541.59 392.759V420.246C541.59 421.189 542.354 421.953 543.296 421.953H585.5C586.442 421.953 587.205 421.189 587.205 420.246V392.759C587.205 391.816 586.442 391.052 585.5 391.052Z" fill="white"/>
<path d="M657.621 391.052H599.599C599.343 391.052 599.135 391.26 599.135 391.516V395.505C599.135 395.761 599.343 395.968 599.599 395.968H657.621C657.877 395.968 658.084 395.761 658.084 395.505V391.516C658.084 391.26 657.877 391.052 657.621 391.052Z" fill="white"/>
<path d="M657.621 401.586H599.599C599.343 401.586 599.135 401.794 599.135 402.05V406.039C599.135 406.295 599.343 406.502 599.599 406.502H657.621C657.877 406.502 658.084 406.295 658.084 406.039V402.05C658.084 401.794 657.877 401.586 657.621 401.586Z" fill="white"/>
<path d="M657.621 412.121H599.599C599.343 412.121 599.135 412.328 599.135 412.584V416.573C599.135 416.829 599.343 417.037 599.599 417.037H657.621C657.877 417.037 658.084 416.829 658.084 416.573V412.584C658.084 412.328 657.877 412.121 657.621 412.121Z" fill="white"/>
<path opacity="0.1" d="M316.147 264.365H243.984V268.108H316.147V264.365Z" fill="#175190"/>
<path opacity="0.1" d="M257.345 244.574H250.398V264.365H257.345V244.574Z" fill="#175190"/>
<path opacity="0.1" d="M267.5 244.574H260.552V264.365H267.5V244.574Z" fill="#175190"/>
<path opacity="0.1" d="M277.655 244.574H270.707V264.365H277.655V244.574Z" fill="#175190"/>
<path opacity="0.1" d="M287.809 244.574H280.862V264.365H287.809V244.574Z" fill="#175190"/>
<path opacity="0.1" d="M297.964 244.574H291.016V264.365H297.964V244.574Z" fill="#175190"/>
<path opacity="0.1" d="M308.125 244.574H301.178V264.365H308.125V244.574Z" fill="#175190"/>
<path opacity="0.1" d="M257.345 248.318H250.398V250.46H257.345V248.318Z" fill="#175190"/>
<path opacity="0.1" d="M267.5 248.318H260.552V250.46H267.5V248.318Z" fill="#175190"/>
<path opacity="0.1" d="M277.655 248.318H270.707V250.46H277.655V248.318Z" fill="#175190"/>
<path opacity="0.1" d="M287.809 248.318H280.862V250.46H287.809V248.318Z" fill="#175190"/>
<path opacity="0.1" d="M297.964 248.318H291.016V250.46H297.964V248.318Z" fill="#175190"/>
<path opacity="0.1" d="M308.125 248.318H301.178V250.46H308.125V248.318Z" fill="#175190"/>
<path opacity="0.1" d="M257.345 257.946H250.398V260.088H257.345V257.946Z" fill="#175190"/>
<path opacity="0.1" d="M267.5 257.946H260.552V260.088H267.5V257.946Z" fill="#175190"/>
<path opacity="0.1" d="M277.655 257.946H270.707V260.088H277.655V257.946Z" fill="#175190"/>
<path opacity="0.1" d="M287.809 257.946H280.862V260.088H287.809V257.946Z" fill="#175190"/>
<path opacity="0.1" d="M297.964 257.946H291.016V260.088H297.964V257.946Z" fill="#175190"/>
<path opacity="0.1" d="M308.125 257.946H301.178V260.088H308.125V257.946Z" fill="#175190"/>
<path opacity="0.1" d="M474.361 273.994H402.198V277.737H474.361V273.994Z" fill="#175190"/>
<path opacity="0.1" d="M415.559 254.203H408.612V273.994H415.559V254.203Z" fill="#175190"/>
<path opacity="0.1" d="M425.714 254.203H418.766V273.994H425.714V254.203Z" fill="#175190"/>
<path opacity="0.1" d="M435.869 254.203H428.921V273.994H435.869V254.203Z" fill="#175190"/>
<path opacity="0.1" d="M446.03 254.203H439.083V273.994H446.03V254.203Z" fill="#175190"/>
<path opacity="0.1" d="M456.185 254.203H449.237V273.994H456.185V254.203Z" fill="#175190"/>
<path opacity="0.1" d="M466.34 254.203H459.392V273.994H466.34V254.203Z" fill="#175190"/>
<path opacity="0.1" d="M415.559 257.946H408.612V260.088H415.559V257.946Z" fill="#175190"/>
<path opacity="0.1" d="M425.714 257.946H418.766V260.088H425.714V257.946Z" fill="#175190"/>
<path opacity="0.1" d="M435.869 257.946H428.921V260.088H435.869V257.946Z" fill="#175190"/>
<path opacity="0.1" d="M446.03 257.946H439.083V260.088H446.03V257.946Z" fill="#175190"/>
<path opacity="0.1" d="M456.185 257.946H449.237V260.088H456.185V257.946Z" fill="#175190"/>
<path opacity="0.1" d="M466.34 257.946H459.392V260.088H466.34V257.946Z" fill="#175190"/>
<path opacity="0.1" d="M415.559 267.575H408.612V269.717H415.559V267.575Z" fill="#175190"/>
<path opacity="0.1" d="M425.714 267.575H418.766V269.717H425.714V267.575Z" fill="#175190"/>
<path opacity="0.1" d="M435.869 267.575H428.921V269.717H435.869V267.575Z" fill="#175190"/>
<path opacity="0.1" d="M446.03 267.575H439.083V269.717H446.03V267.575Z" fill="#175190"/>
<path opacity="0.1" d="M456.185 267.575H449.237V269.717H456.185V267.575Z" fill="#175190"/>
<path opacity="0.1" d="M466.34 267.575H459.392V269.717H466.34V267.575Z" fill="#175190"/>
<path opacity="0.1" d="M474.361 301.271H402.198V305.014H474.361V301.271Z" fill="#175190"/>
<path opacity="0.1" d="M415.559 281.48H408.612V301.271H415.559V281.48Z" fill="#175190"/>
<path opacity="0.1" d="M425.714 281.48H418.766V301.271H425.714V281.48Z" fill="#175190"/>
<path opacity="0.1" d="M435.869 281.48H428.921V301.271H435.869V281.48Z" fill="#175190"/>
<path opacity="0.1" d="M446.03 281.48H439.083V301.271H446.03V281.48Z" fill="#175190"/>
<path opacity="0.1" d="M456.185 281.48H449.237V301.271H456.185V281.48Z" fill="#175190"/>
<path opacity="0.1" d="M466.34 281.48H459.392V301.271H466.34V281.48Z" fill="#175190"/>
<path opacity="0.1" d="M415.559 285.223H408.612V287.365H415.559V285.223Z" fill="#175190"/>
<path opacity="0.1" d="M425.714 285.223H418.766V287.365H425.714V285.223Z" fill="#175190"/>
<path opacity="0.1" d="M435.869 285.223H428.921V287.365H435.869V285.223Z" fill="#175190"/>
<path opacity="0.1" d="M446.03 285.223H439.083V287.365H446.03V285.223Z" fill="#175190"/>
<path opacity="0.1" d="M456.185 285.223H449.237V287.365H456.185V285.223Z" fill="#175190"/>
<path opacity="0.1" d="M466.34 285.223H459.392V287.365H466.34V285.223Z" fill="#175190"/>
<path opacity="0.1" d="M415.559 294.852H408.612V296.994H415.559V294.852Z" fill="#175190"/>
<path opacity="0.1" d="M425.714 294.852H418.766V296.994H425.714V294.852Z" fill="#175190"/>
<path opacity="0.1" d="M435.869 294.852H428.921V296.994H435.869V294.852Z" fill="#175190"/>
<path opacity="0.1" d="M446.03 294.852H439.083V296.994H446.03V294.852Z" fill="#175190"/>
<path opacity="0.1" d="M456.185 294.852H449.237V296.994H456.185V294.852Z" fill="#175190"/>
<path opacity="0.1" d="M466.34 294.852H459.392V296.994H466.34V294.852Z" fill="#175190"/>
<path opacity="0.1" d="M288.251 306.692C287.713 306.002 287.221 305.277 286.778 304.522L297.171 302.816L285.942 302.9C284.865 300.553 284.278 298.012 284.215 295.43C284.152 292.849 284.616 290.281 285.578 287.885L300.631 295.694L286.728 285.469C288.022 283.198 289.77 281.219 291.864 279.657C293.958 278.095 296.352 276.982 298.896 276.39C301.44 275.798 304.079 275.738 306.647 276.215C309.215 276.692 311.657 277.695 313.819 279.161C315.981 280.627 317.817 282.525 319.212 284.735C320.606 286.945 321.529 289.42 321.922 292.004C322.315 294.588 322.17 297.225 321.497 299.751C320.823 302.276 319.634 304.634 318.006 306.678C318.852 307.747 319.577 308.905 320.168 310.134L306.68 317.157L321.059 312.332C322.065 315.315 322.313 318.503 321.78 321.606C321.247 324.709 319.95 327.631 318.006 330.107C320.21 332.903 321.582 336.263 321.966 339.803C322.35 343.342 321.73 346.919 320.178 350.123C318.626 353.326 316.203 356.028 313.188 357.918C310.173 359.809 306.687 360.811 303.129 360.811C299.571 360.811 296.085 359.809 293.07 357.918C290.055 356.028 287.632 353.326 286.08 350.123C284.527 346.919 283.908 343.342 284.292 339.803C284.676 336.263 286.048 332.903 288.251 330.107C285.627 326.766 284.2 322.639 284.2 318.389C284.2 314.139 285.627 310.013 288.251 306.671V306.692Z" fill="#175190"/>
<path opacity="0.1" d="M322.063 318.407C322.063 322.652 320.634 326.774 318.006 330.107C320.21 332.903 321.582 336.263 321.966 339.803C322.35 343.342 321.73 346.919 320.178 350.123C318.626 353.326 316.203 356.028 313.188 357.918C310.173 359.809 306.687 360.811 303.129 360.811C299.571 360.811 296.085 359.809 293.07 357.918C290.055 356.028 287.632 353.326 286.08 350.123C284.527 346.919 283.908 343.342 284.292 339.803C284.676 336.263 286.048 332.903 288.251 330.107C285.704 326.897 322.063 316.279 322.063 318.407Z" fill="#175190"/>
<path opacity="0.2" d="M306.16 365.84C306.193 365.89 306.224 365.941 306.252 365.994H299.823C299.859 365.945 299.88 365.889 299.915 365.84C299.361 364.877 299.076 363.783 299.087 362.672C299.084 361.911 299.214 361.155 299.473 360.439C299.83 360.495 300.273 360.558 300.785 360.615C302.276 360.764 303.778 360.764 305.269 360.615C305.7 360.572 306.142 360.516 306.596 360.446C306.592 360.457 306.592 360.47 306.596 360.481C306.851 361.186 306.979 361.93 306.974 362.679C306.989 363.786 306.708 364.877 306.16 365.84Z" fill="#3F3D56"/>
<path opacity="0.1" d="M283.058 365.994H247.268C247.191 365.79 247.121 365.573 247.057 365.362C245.796 361.304 245.942 356.938 247.471 352.974C243.978 350.556 241.397 347.034 240.143 342.972C238.889 338.911 239.036 334.546 240.559 330.577C239.84 330.082 239.157 329.535 238.517 328.941L247.935 324.243L237.226 327.642C235.504 325.719 234.192 323.465 233.372 321.017C232.551 318.569 232.239 315.979 232.454 313.406L249.163 316.426L232.868 310.759C233.43 308.203 234.514 305.792 236.053 303.676C237.592 301.561 239.551 299.787 241.809 298.466C244.066 297.145 246.572 296.306 249.169 296.002C251.766 295.698 254.398 295.935 256.899 296.698C259.4 297.461 261.716 298.734 263.701 300.436C265.687 302.139 267.299 304.234 268.435 306.591C269.572 308.947 270.209 311.514 270.307 314.128C270.404 316.743 269.96 319.35 269.002 321.785C270.132 322.572 271.174 323.478 272.111 324.489L261.289 335.17L273.605 326.307C275.451 328.863 276.631 331.839 277.038 334.966C277.444 338.093 277.065 341.272 275.935 344.216C279.334 346.571 281.87 349.975 283.156 353.906C284.442 357.838 284.408 362.083 283.058 365.994Z" fill="#175190"/>
<path opacity="0.1" d="M283.058 365.994H247.268C247.191 365.79 247.121 365.573 247.057 365.362C245.796 361.304 245.942 356.938 247.471 352.974C244.103 350.642 275.704 329.749 276.328 331.785C277.589 335.846 277.443 340.214 275.914 344.181C279.324 346.535 281.869 349.943 283.159 353.883C284.449 357.822 284.414 362.077 283.058 365.994Z" fill="#175190"/>
<path opacity="0.1" d="M444.992 340.332C442.818 343.983 439.478 346.794 435.511 348.31C435.68 349.662 435.706 351.027 435.588 352.384L420.423 351.471L435.237 354.687C434.801 356.708 434.038 358.644 432.977 360.418C431.686 362.591 429.967 364.478 427.925 365.966H407.278V366.507H386.225C386.267 366.324 386.31 366.149 386.359 365.966C387.127 363.06 388.574 360.379 390.581 358.143C392.588 355.908 395.098 354.181 397.903 353.107C397.364 348.891 398.256 344.616 400.436 340.969C402.616 337.321 405.958 334.513 409.924 332.993C409.813 332.125 409.761 331.249 409.77 330.374L419.559 334.243L409.875 328.548C410.16 325.981 410.967 323.5 412.245 321.256C413.523 319.012 415.245 317.053 417.307 315.499L426.226 329.952L419.538 314.038C423.181 312.021 427.387 311.261 431.505 311.875C435.623 312.489 439.424 314.443 442.321 317.436C445.218 320.429 447.05 324.293 447.532 328.431C448.015 332.57 447.122 336.752 444.992 340.332Z" fill="#175190"/>
<path opacity="0.1" d="M432.977 360.446C431.686 362.619 429.967 364.506 427.925 365.994H407.278V366.535H386.225C386.267 366.352 386.31 366.177 386.359 365.994C387.127 363.089 388.574 360.407 390.581 358.172C392.588 355.936 395.098 354.21 397.903 353.135C397.727 351.731 401.805 351.941 407.243 352.854C417.903 354.645 433.7 359.238 432.977 360.446Z" fill="#175190"/>
<path d="M343.488 309.874C343.488 309.874 346.084 323.92 340.288 328.506C334.491 333.092 345.2 360.579 362.871 357.37C380.541 354.16 387.741 331.104 387.741 331.104C387.741 331.104 370.043 327.438 376.604 308.806L343.488 309.874Z" fill="#EE8E9E"/>
<path d="M343.488 309.874C343.488 309.874 346.084 323.92 340.288 328.506C334.491 333.092 345.2 360.579 362.871 357.37C380.541 354.16 387.741 331.104 387.741 331.104C387.741 331.104 370.043 327.438 376.604 308.806L343.488 309.874Z" fill="#985E5E"/>
<path d="M359.13 320.183C375.311 320.183 388.429 307.056 388.429 290.863C388.429 274.669 375.311 261.542 359.13 261.542C342.949 261.542 329.831 274.669 329.831 290.863C329.831 307.056 342.949 320.183 359.13 320.183Z" fill="#A26565"/>
<path d="M407.278 346.604V366.535H310.532V347.51C310.532 345.097 311.242 342.738 312.574 340.727C313.906 338.716 315.8 337.143 318.02 336.203L320.792 335.023C327.81 332.031 336.337 328.316 339.123 326.771C339.428 326.619 339.715 326.432 339.979 326.216C341.502 324.692 341.2 326.673 341.2 326.673C341.2 326.673 341.158 327.052 341.13 327.705C340.961 332.193 341.607 349.827 362.26 348.36C382.408 346.955 383.313 333.316 383.11 329.306C383.098 328.935 383.068 328.565 383.018 328.197C384.412 328.528 385.775 328.975 387.096 329.531C391.306 331.09 397.524 333.59 399.187 334.77C399.706 335.135 400.338 335.515 401.026 335.901C401.806 336.336 402.536 336.857 403.201 337.453C404.485 338.606 405.511 340.017 406.213 341.594C406.916 343.171 407.279 344.878 407.278 346.604Z" fill="#175190"/>
<path opacity="0.1" d="M387.096 329.531C385.39 337.439 380.036 352.25 360.737 352.636C340.175 353.044 338.982 332.579 339.116 326.771C339.425 326.623 339.715 326.436 339.979 326.216C341.509 324.692 341.2 326.673 341.2 326.673C341.2 326.673 338.61 350.038 362.253 348.359C385.896 346.681 382.99 328.204 382.99 328.204C382.99 328.091 384.752 328.702 387.096 329.531Z" fill="black"/>
<path d="M324.449 292.33C325.421 292.087 326.445 292.141 327.387 292.485C328.329 292.83 329.146 293.448 329.733 294.262C330.8 295.758 330.961 297.563 331.094 299.29C332.365 299.557 333.08 298.117 333.2 297.029C333.67 292.597 333.705 288.082 335.193 283.798C336.681 279.514 339.93 275.37 344.919 273.734C346.624 273.143 348.446 272.969 350.232 273.228C351.291 273.404 352.288 273.776 353.341 273.93C356.99 274.534 360.955 272.807 364.372 274.008C366.52 274.766 367.881 276.515 368.885 278.264C369.321 279.206 369.914 280.068 370.639 280.813C372.092 282.119 374.366 282.456 376.45 282.864C378.534 283.271 380.808 283.98 381.699 285.588C382.499 287.042 381.91 288.721 381.643 290.294C381.231 292.786 381.647 295.345 382.829 297.577C383.215 298.279 384.001 299.129 384.934 298.897C385.352 298.756 385.706 298.469 385.931 298.089C388.324 294.732 388.261 290.364 391.264 287.337C392.268 286.326 393.566 285.539 394.541 284.528C395.28 283.779 395.821 282.858 396.117 281.848C396.414 280.838 396.456 279.771 396.24 278.741C395.699 276.423 393.847 274.527 392.352 272.491C390.411 269.91 388.997 266.973 388.19 263.845C388.05 263.482 388.05 263.078 388.19 262.715C388.474 262.346 388.839 262.048 389.257 261.844C390.071 261.298 390.657 260.474 390.908 259.527C391.159 258.579 391.056 257.573 390.619 256.696C389.769 254.961 387.903 253.641 385.797 252.854C383.662 252.152 381.458 251.682 379.222 251.45C377.748 251.661 376.022 250.825 375.566 249.645C375.362 249.118 375.362 248.549 375.159 248.023C374.882 247.494 374.483 247.039 373.995 246.697C373.506 246.354 372.943 246.135 372.351 246.056C371.096 245.853 369.811 245.944 368.597 246.323C367.193 246.716 365.6 247.306 364.386 246.618C363.748 246.26 363.397 245.607 362.709 245.312C361.306 244.722 359.86 245.916 358.856 246.899C357.889 247.931 356.702 248.73 355.383 249.238C354.686 249.503 353.94 249.615 353.197 249.565C352.453 249.516 351.729 249.306 351.074 248.95C350.112 248.339 349.628 247.356 348.863 246.576C347.418 245.287 345.57 244.542 343.635 244.469C341.646 244.363 339.653 244.582 337.733 245.115C334.07 246.009 330.571 247.478 327.368 249.469C325.757 250.356 324.39 251.627 323.389 253.171C322.797 254.354 322.491 255.66 322.498 256.984C322.343 261.135 323.719 265.503 327.305 268.41C325.115 269.323 324.378 271.564 323.866 273.551C323.045 276.725 322.224 279.949 322.533 283.18C322.687 284.851 323.143 286.522 322.898 288.187C322.701 288.971 322.593 289.774 322.575 290.582C322.678 291.027 322.911 291.431 323.245 291.742C323.579 292.054 323.998 292.258 324.449 292.33Z" fill="#454B69"/>
<g opacity="0.1">
<path opacity="0.1" d="M395.784 277.435C395.468 278.123 395.042 278.754 394.52 279.303C393.545 280.328 392.247 281.122 391.243 282.112C388.24 285.118 388.303 289.514 385.91 292.871C385.686 293.251 385.332 293.536 384.913 293.672C384.001 293.911 383.215 293.082 382.808 292.352C382.344 291.462 381.993 290.519 381.762 289.542C381.713 289.788 381.664 290.034 381.622 290.245C381.209 292.737 381.626 295.295 382.808 297.527C383.194 298.23 383.98 299.079 384.913 298.848C385.331 298.706 385.685 298.42 385.91 298.04C388.303 294.683 388.24 290.315 391.243 287.288C392.247 286.277 393.545 285.49 394.52 284.479C395.259 283.729 395.8 282.809 396.096 281.799C396.393 280.789 396.435 279.722 396.219 278.692C396.111 278.261 395.965 277.84 395.784 277.435Z" fill="black"/>
<path opacity="0.1" d="M389.243 256.647C388.824 256.849 388.458 257.147 388.176 257.518C388.036 257.879 388.036 258.28 388.176 258.641C388.453 259.733 388.807 260.803 389.236 261.844C390.049 261.298 390.636 260.474 390.887 259.527C391.138 258.579 391.035 257.573 390.597 256.696C390.461 256.407 390.296 256.132 390.106 255.874C389.857 256.172 389.566 256.432 389.243 256.647Z" fill="black"/>
<path opacity="0.1" d="M327.348 263.157C324.862 261.107 323.224 258.207 322.752 255.018C322.626 255.647 322.555 256.286 322.541 256.928C322.38 259.994 323.188 263.034 324.85 265.615C325.353 264.516 326.242 263.641 327.348 263.157Z" fill="black"/>
<path opacity="0.1" d="M381.643 285.118C381.909 283.538 382.499 281.859 381.699 280.412C380.808 278.797 378.534 278.095 376.45 277.688C374.365 277.28 372.092 276.936 370.639 275.637C369.914 274.893 369.321 274.031 368.885 273.088C367.895 271.339 366.52 269.576 364.372 268.832C360.955 267.631 356.99 269.351 353.34 268.754C352.288 268.579 351.291 268.214 350.232 268.052C348.446 267.791 346.624 267.964 344.919 268.558C339.93 270.201 336.68 274.345 335.193 278.622C333.705 282.899 333.67 287.414 333.2 291.853C333.08 292.934 332.365 294.381 331.094 294.114C330.961 292.38 330.8 290.603 329.733 289.079C329.145 288.267 328.327 287.649 327.385 287.306C326.444 286.963 325.421 286.91 324.449 287.155C323.859 287.023 323.335 286.687 322.968 286.206C323.045 286.85 323.045 287.501 322.968 288.145C322.771 288.928 322.663 289.732 322.645 290.54C322.735 290.989 322.958 291.401 323.285 291.723C323.611 292.044 324.026 292.261 324.477 292.344C325.449 292.101 326.473 292.155 327.415 292.499C328.357 292.844 329.174 293.462 329.761 294.276C330.828 295.772 330.989 297.577 331.122 299.304C332.393 299.571 333.108 298.131 333.228 297.043C333.698 292.611 333.733 288.096 335.221 283.812C336.708 279.528 339.958 275.384 344.947 273.748C346.652 273.157 348.474 272.983 350.26 273.242C351.319 273.418 352.316 273.79 353.369 273.944C357.018 274.548 360.983 272.821 364.4 274.022C366.548 274.78 367.909 276.529 368.913 278.278C369.349 279.221 369.942 280.083 370.667 280.827C372.12 282.133 374.393 282.47 376.478 282.878C378.562 283.285 380.688 283.945 381.622 285.434C381.587 285.329 381.622 285.223 381.643 285.118Z" fill="black"/>
<path opacity="0.1" d="M322.94 282.934C323.055 281.626 322.977 280.307 322.708 279.022C322.503 280.379 322.458 281.756 322.575 283.123C322.575 283.475 322.652 283.826 322.701 284.17C322.778 283.755 322.884 283.348 322.94 282.934Z" fill="black"/>
</g>
<path d="M288.595 394.872V382.196C288.595 382.101 288.633 382.01 288.7 381.943C288.767 381.876 288.858 381.838 288.953 381.838H290.392C290.487 381.838 290.578 381.876 290.645 381.943C290.712 382.01 290.75 382.101 290.75 382.196V387.47L296.588 382.056C296.726 381.941 296.892 381.867 297.069 381.843C297.247 381.819 297.427 381.845 297.59 381.918C297.753 381.991 297.892 382.108 297.992 382.257C298.092 382.406 298.147 382.579 298.153 382.758V394.24C298.147 394.419 298.092 394.593 297.992 394.741C297.892 394.89 297.753 395.007 297.59 395.081C297.427 395.154 297.247 395.18 297.069 395.155C296.892 395.131 296.726 395.057 296.588 394.943L290.75 389.563V394.809C290.75 394.904 290.712 394.995 290.645 395.063C290.578 395.13 290.487 395.167 290.392 395.167H288.953C288.868 395.169 288.786 395.14 288.72 395.086C288.654 395.032 288.61 394.956 288.595 394.872Z" fill="#444053"/>
<path d="M429.672 382.196V394.872C429.672 394.92 429.663 394.967 429.644 395.011C429.626 395.055 429.599 395.095 429.565 395.128C429.531 395.162 429.49 395.188 429.446 395.205C429.402 395.223 429.355 395.232 429.307 395.231H427.904C427.809 395.231 427.718 395.193 427.651 395.126C427.583 395.059 427.546 394.967 427.546 394.872V389.598L421.707 395.006C421.569 395.12 421.402 395.193 421.225 395.217C421.047 395.241 420.867 395.215 420.704 395.142C420.54 395.069 420.401 394.952 420.3 394.804C420.2 394.656 420.142 394.482 420.135 394.304V382.779C420.142 382.6 420.2 382.427 420.3 382.279C420.401 382.131 420.54 382.014 420.704 381.941C420.867 381.868 421.047 381.842 421.225 381.866C421.402 381.89 421.569 381.963 421.707 382.077L427.546 387.456V382.217C427.546 382.122 427.583 382.031 427.651 381.964C427.718 381.897 427.809 381.859 427.904 381.859H429.307C429.4 381.857 429.489 381.891 429.558 381.954C429.626 382.017 429.667 382.104 429.672 382.196Z" fill="#444053"/>
<path d="M356.751 395.42H353.895C353.523 395.42 353.166 395.272 352.902 395.009C352.639 394.745 352.491 394.388 352.491 394.016V383.523C352.491 383.151 352.639 382.794 352.902 382.53C353.166 382.267 353.523 382.119 353.895 382.119H356.751C357.123 382.119 357.48 382.267 357.744 382.53C358.007 382.794 358.155 383.151 358.155 383.523V394.016C358.155 394.388 358.007 394.745 357.744 395.009C357.48 395.272 357.123 395.42 356.751 395.42ZM365.804 394.016V383.523C365.804 383.151 365.656 382.794 365.393 382.53C365.13 382.267 364.773 382.119 364.4 382.119H361.516C361.144 382.119 360.787 382.267 360.524 382.53C360.26 382.794 360.113 383.151 360.113 383.523V394.016C360.113 394.388 360.26 394.745 360.524 395.009C360.787 395.272 361.144 395.42 361.516 395.42H364.372C364.559 395.424 364.745 395.39 364.918 395.322C365.092 395.253 365.25 395.15 365.383 395.019C365.516 394.888 365.622 394.732 365.694 394.56C365.767 394.388 365.804 394.203 365.804 394.016Z" fill="#444053"/>
<path opacity="0.6" d="M443.342 365.109H274.918V366.984H443.342V365.109Z" fill="#444053"/>
<path d="M326.926 370.489C329.379 370.489 331.368 368.499 331.368 366.043C331.368 363.588 329.379 361.598 326.926 361.598C324.472 361.598 322.484 363.588 322.484 366.043C322.484 368.499 324.472 370.489 326.926 370.489Z" fill="#444053"/>
<path d="M326.926 365.109H274.918V366.984H326.926V365.109Z" fill="#444053"/>
<path opacity="0.1" d="M233.513 620C271.883 620 302.989 613.397 302.989 605.252C302.989 597.107 271.883 590.504 233.513 590.504C195.143 590.504 164.038 597.107 164.038 605.252C164.038 613.397 195.143 620 233.513 620Z" fill="#175190"/>
<path d="M256.777 603.538C255.373 603.026 253.872 603.11 252.405 602.948C249.36 602.596 246.524 601.219 244.363 599.043C242.973 597.637 241.88 595.965 241.149 594.127C241.612 594.296 242.075 594.472 242.552 594.661C241.149 591.381 242.622 587.701 243.913 584.387C246.103 578.768 248.173 573.119 250.124 567.44C255.037 553.05 259.247 538.084 259.156 522.774C259.156 517.24 258.138 512.008 257.942 506.481C257.794 502.38 258.426 498.285 258.398 494.177C258.398 493.601 258.398 493.032 258.356 492.456C259.611 491.356 260.598 489.983 261.239 488.441C261.88 486.9 262.159 485.232 262.054 483.565C261.983 482.697 261.859 481.834 261.682 480.981C261.434 479.499 261.106 478.031 260.7 476.584C260.237 475.06 259.605 473.6 259.065 472.111C258.019 469.224 257.31 466.219 256.419 463.283C256.749 463.317 257.072 463.405 257.373 463.543C257.149 463.279 256.994 462.962 256.924 462.623C256.4 460.754 256.117 458.826 256.082 456.885L256.679 456.618C256.947 454.723 256.85 452.795 256.391 450.937C256.728 447.924 257.254 444.89 257.577 441.891C257.696 440.767 257.647 439.356 256.616 439.082C256.405 437.474 256.321 435.844 256.237 434.222C255.942 428.562 255.649 422.903 255.359 417.248C255.065 411.566 254.77 405.891 254.658 400.203C254.58 396.593 254.538 392.857 253.682 389.402C253.83 387.746 253.661 386.078 253.184 384.486C251.879 380.349 247.822 377.069 243.71 377.301C242.484 375.545 240.967 374.011 239.226 372.764C240.047 370.924 241.029 369.028 241.836 367.539C248.419 365.397 253.233 358.901 253.233 351.176C253.243 348.348 252.581 345.558 251.303 343.036C251.424 342.726 251.527 342.41 251.612 342.088C251.964 340.571 251.854 338.984 251.296 337.53C251.099 336.972 250.864 336.428 250.594 335.901C250.412 335.55 250.215 335.199 250.012 334.861L249.654 334.321C249.436 333.991 249.212 333.675 248.952 333.366C248.454 332.696 247.92 332.053 247.352 331.441C246.653 330.684 245.882 329.998 245.05 329.391C243.922 328.551 242.631 327.956 241.261 327.642C240.468 327.485 239.661 327.412 238.854 327.424C238.369 327.424 237.878 327.424 237.394 327.466C236.412 327.522 235.436 327.593 234.461 327.586C234.138 327.586 233.808 327.586 233.485 327.536C231.768 327.307 230.07 326.953 228.404 326.476L227.562 326.3C227.275 326.244 226.994 326.195 226.706 326.16C225.936 326.057 225.16 326.01 224.383 326.02H223.604C222.826 326.057 222.051 326.137 221.281 326.258L220.509 326.378C218.56 326.683 216.66 327.248 214.86 328.056C214.629 328.162 214.39 328.281 214.158 328.407L214.018 328.485C213.829 328.583 213.639 328.688 213.457 328.801L213.351 328.864L212.755 329.243L212.706 329.278C207.134 333.028 203.842 340.136 203.007 347.187C202.074 355.102 203.709 363.08 205.344 370.868L206.818 377.891C206.881 378.207 206.951 378.516 207.014 378.832C204.942 380.534 203.348 382.746 202.39 385.251C200.986 388.763 200.951 392.562 201.063 396.368C201.063 397.141 201.106 397.913 201.183 398.686C201.007 400.147 200.853 401.614 200.755 403.089C200.313 409.902 201.141 416.749 200.923 423.575C200.755 428.835 199.962 434.11 200.348 439.335C200.684 443.97 201.927 448.465 203.155 452.938L204.923 459.315C204.981 459.645 205.134 459.95 205.365 460.193C205.656 460.388 206.011 460.461 206.355 460.397C205.204 463.012 204.243 465.706 203.478 468.459C202.949 470.145 202.601 471.882 202.439 473.642C202.207 476.858 202.951 480.054 203.695 483.179C204.818 487.861 205.936 492.562 207.05 497.281C207.836 500.582 208.619 503.88 209.4 507.176C210.944 513.68 212.495 520.225 212.783 526.918C212.943 530.279 212.708 533.648 212.081 536.954C210.057 546.854 209.762 557.031 211.211 567.033C212.382 575.471 214.282 583.791 216.888 591.901C217.457 591.599 218.032 591.318 218.622 591.058L218.376 591.515C217.567 592.919 216.818 594.359 216.13 595.834C215.667 596.792 215.266 597.78 214.93 598.791C214.032 601.6 213.892 604.592 213.765 607.548C213.701 608.117 213.751 608.692 213.913 609.241C214.299 610.301 215.408 610.842 216.439 611.137C219.471 612.001 222.622 611.692 225.773 611.284C225.787 611.354 225.808 611.422 225.836 611.488C226.222 612.549 227.324 613.089 228.362 613.384C232.699 614.62 237.275 613.455 241.745 613.033C246.215 612.612 250.608 612.921 254.91 611.888C255.551 611.751 256.167 611.514 256.735 611.186C257.841 610.412 258.652 609.286 259.037 607.991C259.171 607.655 259.261 607.303 259.303 606.944C259.479 605.406 258.166 604.051 256.777 603.538ZM241.935 538.499C241.693 540.144 241.22 541.747 240.531 543.26C237.155 550.444 234.734 558.04 233.331 565.853C232.41 571.014 231.877 576.238 231.738 581.479C231.668 585.342 231.815 589.387 230.208 592.856L230.79 592.765C230.608 593.102 230.432 593.467 230.264 593.734L230.18 593.889C229.208 592.232 228.558 590.407 228.264 588.509C228.264 588.446 227.948 588.397 227.464 588.369C225.48 577.275 224.792 565.988 225.415 554.736C225.424 553.371 225.613 552.013 225.976 550.698C226.334 549.567 226.938 548.534 227.38 547.439C228.081 545.598 228.552 543.678 228.783 541.722C229.548 536.723 229.844 531.663 229.668 526.609C229.499 521.84 230.601 517.1 231.541 512.352C231.99 510.098 232.404 507.837 232.629 505.575L232.671 505.119C236.846 512.012 239.764 519.593 241.289 527.508C242.136 531.107 242.355 534.825 241.935 538.499ZM211.899 437.003L212.123 437.2C212.802 437.797 213.426 438.453 213.99 439.159C214.271 439.467 214.473 439.838 214.58 440.241C214.79 441.266 213.941 442.137 213.246 442.888C212.944 443.214 212.661 443.556 212.397 443.914C212.247 441.61 212.088 439.307 211.92 437.003H211.899Z" fill="url(#paint0_linear)"/>
<path d="M202.186 392.983L201.414 398.946C201.155 400.968 200.895 402.984 200.755 405.014C200.284 411.77 201.155 418.554 200.93 425.324C200.748 430.535 199.92 435.739 200.32 440.943C200.677 445.536 201.983 450.003 203.288 454.427L205.141 460.748C205.204 461.078 205.365 461.381 205.604 461.619C205.961 461.83 206.385 461.898 206.79 461.808L215.015 461.064C214.488 458.648 213.906 456.148 213.611 453.669C213.386 451.73 213.253 449.778 213.113 447.825C212.678 441.744 212.179 435.662 211.709 429.566L210.832 418.891C210.46 414.256 210.074 409.6 208.909 405.098C207.74 400.551 205.426 396.38 202.186 392.983Z" fill="#175190"/>
<path d="M202.186 392.983L201.414 398.946C201.155 400.968 200.895 402.984 200.755 405.014C200.284 411.77 201.155 418.554 200.93 425.324C200.748 430.535 199.92 435.739 200.32 440.943C200.677 445.536 201.983 450.003 203.288 454.427L205.141 460.748C205.204 461.078 205.365 461.381 205.604 461.619C205.961 461.83 206.385 461.898 206.79 461.808L215.015 461.064C214.488 458.648 213.906 456.148 213.611 453.669C213.386 451.73 213.253 449.778 213.113 447.825C212.678 441.744 212.179 435.662 211.709 429.566L210.832 418.891C210.46 414.256 210.074 409.6 208.909 405.098C207.74 400.551 205.426 396.38 202.186 392.983Z" fill="#E94966"/>
<path d="M216.839 595.96C216.356 596.911 215.934 597.892 215.576 598.896C214.636 601.67 214.495 604.648 214.355 607.576C214.293 608.141 214.345 608.712 214.509 609.255C214.916 610.308 216.081 610.842 217.169 611.13C221.724 612.359 226.524 611.207 231.204 610.786C235.885 610.365 240.51 610.674 245.029 609.655C245.697 609.526 246.342 609.302 246.945 608.988C248.089 608.243 248.944 607.127 249.366 605.828C249.502 605.495 249.594 605.145 249.64 604.788C249.787 603.243 248.447 601.909 246.987 601.403C245.528 600.898 243.935 600.975 242.398 600.82C239.232 600.496 236.262 599.136 233.948 596.951C231.634 594.766 230.104 591.877 229.597 588.734C229.541 588.397 221.99 588.6 221.176 589.036C220.25 589.549 219.688 590.82 219.162 591.684C218.334 593.074 217.56 594.5 216.839 595.96Z" fill="#A26565"/>
<path opacity="0.1" d="M216.839 595.96C216.356 596.911 215.934 597.892 215.576 598.896C214.636 601.67 214.495 604.648 214.355 607.576C214.293 608.141 214.345 608.712 214.509 609.255C214.916 610.308 216.081 610.842 217.169 611.13C221.724 612.359 226.524 611.207 231.204 610.786C235.885 610.365 240.51 610.674 245.029 609.655C245.697 609.526 246.342 609.302 246.945 608.988C248.089 608.243 248.944 607.127 249.366 605.828C249.502 605.495 249.594 605.145 249.64 604.788C249.787 603.243 248.447 601.909 246.987 601.403C245.528 600.898 243.935 600.975 242.398 600.82C239.232 600.496 236.262 599.136 233.948 596.951C231.634 594.766 230.104 591.877 229.597 588.734C229.541 588.397 221.99 588.6 221.176 589.036C220.25 589.549 219.688 590.82 219.162 591.684C218.334 593.074 217.56 594.5 216.839 595.96Z" fill="black"/>
<path d="M229.366 598.194C228.88 599.141 228.458 600.119 228.103 601.122C227.155 603.932 227.015 606.874 226.882 609.803C226.816 610.367 226.869 610.938 227.036 611.481C227.436 612.535 228.601 613.068 229.689 613.363C234.243 614.585 239.05 613.434 243.724 613.012C248.398 612.591 253.036 612.9 257.549 611.881C258.219 611.746 258.865 611.509 259.465 611.179C260.611 610.435 261.466 609.319 261.886 608.019C262.022 607.686 262.114 607.336 262.159 606.979C262.307 605.441 260.966 604.1 259.507 603.594C258.047 603.089 256.454 603.173 254.917 603.011C251.753 602.687 248.785 601.327 246.471 599.143C244.157 596.96 242.627 594.074 242.117 590.932C242.061 590.595 234.51 590.792 233.696 591.227C232.762 591.74 232.201 593.011 231.675 593.875C230.875 595.3 230.089 596.733 229.366 598.194Z" fill="#A26565"/>
<path d="M262.019 523.589C262.117 538.766 257.71 553.598 252.538 567.834C250.489 573.48 248.316 579.077 246.019 584.626C244.657 587.912 243.12 591.564 244.58 594.809C240.37 593.208 236.089 592.267 231.661 593.004C233.345 589.563 233.183 585.56 233.261 581.767C233.404 576.57 233.957 571.392 234.917 566.282C236.403 558.504 238.951 550.968 242.489 543.885C243.204 542.392 243.698 540.802 243.956 539.166C244.531 535.556 244.082 531.848 243.331 528.273C241.716 520.378 238.646 512.852 234.278 506.081L234.236 506.53C233.974 508.789 233.594 511.032 233.099 513.251C232.11 517.95 230.952 522.655 231.127 527.382C231.31 532.393 231 537.411 230.201 542.361C229.944 544.305 229.436 546.208 228.692 548.022C228.208 549.11 227.576 550.129 227.197 551.26C226.818 552.56 226.62 553.907 226.608 555.263C226.046 566.689 226.608 578.291 228.938 589.492C225.029 589.183 221.12 590.314 217.625 592.07C214.893 584.051 212.896 575.8 211.66 567.419C210.137 557.507 210.447 547.4 212.572 537.6C213.235 534.332 213.483 530.993 213.309 527.662C213.008 521.026 211.379 514.537 209.758 508.089L207.288 498.257C206.119 493.575 204.949 488.914 203.779 484.275C203 481.178 202.214 478.01 202.46 474.822C202.631 473.073 202.999 471.348 203.555 469.681C205.307 464.011 207.928 458.647 211.323 453.781C224.846 454.539 238.531 453.275 252.026 452.236C252.68 452.107 253.359 452.222 253.935 452.559C254.395 453.027 254.669 453.646 254.707 454.301L259.781 483.095C260.602 487.097 261.083 491.161 261.219 495.244C261.219 499.318 260.588 503.377 260.742 507.443C260.952 512.921 261.991 518.104 262.019 523.589Z" fill="#454B69"/>
<path opacity="0.1" d="M234.25 506.53C233.988 508.789 233.609 511.032 233.113 513.251C230.173 508.16 227.001 503.194 224.292 497.976C223.59 496.635 222.931 495.273 222.264 493.91L220.264 489.837C219.892 489.071 219.52 488.306 219.183 487.526C218.635 486.406 218.213 485.228 217.927 484.015C218.909 483.832 221.338 486.487 222.067 487.182C223.556 488.657 224.962 490.214 226.278 491.845C227.877 493.659 229.345 495.583 230.671 497.604C232.37 500.351 233.58 503.371 234.25 506.53Z" fill="black"/>
<path d="M245.514 366.837C245.514 366.837 238.005 378.811 239.394 381.318C240.784 383.825 215.745 379.092 215.745 379.092C215.745 379.092 229.38 367.118 227.983 362.103C226.587 357.089 245.514 366.837 245.514 366.837Z" fill="#EFB7B9"/>
<path d="M238.84 370.461C248.215 370.461 255.816 362.855 255.816 353.472C255.816 344.09 248.215 336.484 238.84 336.484C229.464 336.484 221.864 344.09 221.864 353.472C221.864 362.855 229.464 370.461 238.84 370.461Z" fill="#EFB7B9"/>
<path d="M245.766 379.394C243.948 376.87 241.482 374.885 238.629 373.649C236.985 373.06 235.285 372.641 233.555 372.399L226.783 371.205C225.127 370.91 223.352 370.636 221.808 371.317C221.027 371.718 220.316 372.242 219.702 372.87C217.352 375.054 215.071 377.449 212.116 378.713C211.309 379.057 210.467 379.31 209.66 379.654C206.355 381.058 203.885 384.05 202.488 387.379C201.014 390.848 200.972 394.62 201.085 398.391C201.083 399.693 201.212 400.992 201.47 402.268C201.808 403.483 202.238 404.671 202.755 405.821C203.688 408.283 204.471 410.8 205.099 413.357C206.853 420.075 208.313 426.864 209.478 433.723C209.577 434.706 209.865 435.66 210.327 436.533C210.981 437.406 211.773 438.167 212.671 438.787C213.383 439.372 214.039 440.024 214.629 440.732C214.923 441.022 215.142 441.378 215.267 441.772C215.485 442.783 214.566 443.654 213.864 444.391C212.354 445.933 211.262 447.836 210.692 449.918C210.34 450.346 210.16 450.889 210.186 451.442C210.333 451.827 210.388 452.241 210.348 452.65C210.21 453.023 209.992 453.361 209.709 453.64C209.385 454.063 209.155 454.549 209.034 455.068C208.913 455.586 208.904 456.124 209.007 456.646C214.268 458.934 219.897 460.252 225.625 460.537C227.029 460.607 228.433 460.607 229.836 460.776C230.833 460.902 231.815 461.106 232.812 461.225C234.258 461.361 235.711 461.399 237.163 461.338C244.721 461.183 252.496 460.993 259.437 457.995C260.089 454.434 258.679 450.803 257.795 447.292C256.391 441.673 256.04 435.922 254.987 430.254C254.286 426.384 253.233 422.571 252.637 418.673C252.04 414.775 251.935 410.737 252.973 406.945C253.921 403.588 254.209 400.161 255.191 396.811C256.173 393.461 256.861 389.83 255.752 386.515C254.349 382.414 250.089 379.162 245.766 379.394Z" fill="#FF5271"/>
<path d="M254.103 344.462C254.931 341.449 253.303 338.31 251.366 335.859C249.261 333.225 246.58 330.851 243.289 330.191C240.615 329.65 237.843 330.304 235.12 330.086C232.713 329.896 230.397 329.025 228.004 328.681C225.833 328.447 223.639 328.53 221.492 328.927C219.454 329.23 217.462 329.787 215.562 330.584C208.334 333.794 204.102 341.702 203.12 349.546C202.137 357.391 203.856 365.299 205.569 373.017L207.12 379.998C208.734 387.267 210.348 394.563 210.776 401.994C211.204 409.424 210.404 417.051 207.351 423.835C217.224 418.528 224.873 409.862 228.917 399.402C230.011 396.53 230.825 393.545 232.047 390.722C233.092 388.292 234.433 385.988 235.359 383.509C236.406 380.711 236.909 377.739 236.84 374.752C236.784 372.504 236.412 370.271 236.475 368.024C236.538 365.776 237.113 363.438 238.664 361.808C240.068 360.369 241.998 359.702 243.773 358.767C246.568 357.331 249.01 355.292 250.924 352.798C252.04 351.337 252.103 350.691 252.384 349.034C252.665 347.376 253.668 346.056 254.103 344.462Z" fill="#A26565"/>
<path d="M254.124 472.076C254.3 473.824 253.984 475.587 254.363 477.322C254.651 478.614 255.317 479.78 255.71 481.044C256.099 482.504 256.3 484.007 256.307 485.518C256.363 486.782 256.265 488.327 255.142 488.917C254.651 489.177 254.061 489.177 253.549 489.401C253.036 489.626 252.601 490.237 252.896 490.715C253.191 491.192 253.696 491.115 254.159 491.206C254.623 491.297 255.121 491.775 254.861 492.161C254.755 492.288 254.613 492.379 254.454 492.421C253.986 492.566 253.541 492.779 253.135 493.053C252.936 493.198 252.781 493.394 252.686 493.62C252.59 493.847 252.559 494.095 252.594 494.338C252.623 494.455 252.677 494.563 252.753 494.655C252.829 494.748 252.925 494.822 253.034 494.872C253.142 494.922 253.261 494.946 253.381 494.944C253.5 494.942 253.618 494.912 253.724 494.858C253.518 495.298 253.406 495.777 253.394 496.263C255.191 497.035 257.205 496.024 258.889 495.048C259.618 494.641 260.321 494.191 260.995 493.699C262.357 492.653 263.443 491.288 264.157 489.725C264.872 488.162 265.193 486.447 265.093 484.731C265.013 483.869 264.879 483.013 264.693 482.168C264.434 480.695 264.089 479.239 263.661 477.806C263.177 476.296 262.517 474.857 261.949 473.375C260.742 470.222 259.963 466.921 258.868 463.725C258.795 463.394 258.609 463.099 258.342 462.89C258.1 462.771 257.831 462.72 257.563 462.742C256.334 462.678 255.103 462.791 253.907 463.079C253.205 463.29 252.005 463.782 251.675 464.484C251.345 465.186 251.872 465.776 252.187 466.359C253.196 468.121 253.854 470.063 254.124 472.076Z" fill="#EFB7B9"/>
<path opacity="0.1" d="M252.98 386.74C253.341 387.109 253.644 387.531 253.879 387.99C256.293 392.379 256.321 397.625 256.433 402.633C256.559 408.251 256.868 413.87 257.177 419.523L258.096 436.378C258.188 437.986 258.272 439.595 258.503 441.189C259.584 441.463 259.626 442.867 259.507 443.998C258.728 450.866 256.798 457.939 258.805 464.547C258.882 464.886 259.044 465.2 259.275 465.46C258.256 465.14 257.166 465.126 256.138 465.418C255.135 465.629 254.166 466.001 253.156 466.233C251.879 466.521 250.433 466.647 249.563 467.637C248.577 464.669 247.791 461.637 247.212 458.564C246.735 455.754 246.601 452.861 245.464 450.262C245.008 449.216 244.391 448.247 243.829 447.243C240.889 441.989 239.443 436.055 238.033 430.198C237.4 427.421 237.248 424.556 237.584 421.728C237.788 420.438 237.905 419.136 237.934 417.83C237.849 416.453 237.668 415.082 237.394 413.729C236.798 409.758 237.078 405.704 238.215 401.853C239.268 398.279 240.194 394.514 242.426 391.508C244.657 388.503 249.254 386.789 252.98 386.74Z" fill="black"/>
<path d="M253.816 386.178C254.176 386.55 254.479 386.974 254.714 387.435C257.128 391.817 257.156 397.071 257.268 402.078C257.395 407.696 257.703 413.315 258.012 418.933L258.931 435.788C259.023 437.396 259.107 439.005 259.338 440.599C260.419 440.873 260.461 442.277 260.335 443.408C259.563 450.276 257.633 457.342 259.633 463.957C259.711 464.296 259.872 464.61 260.103 464.87C259.084 464.551 257.994 464.536 256.966 464.828C255.963 465.039 254.995 465.411 253.984 465.636C252.707 465.931 251.261 466.05 250.391 467.04C249.408 464.058 248.629 461.013 248.061 457.924C247.584 455.115 247.45 452.229 246.314 449.63C245.82 448.597 245.274 447.589 244.678 446.611C241.731 441.357 240.292 435.416 238.882 429.559C238.249 426.782 238.097 423.917 238.433 421.089C238.961 418.441 238.897 415.71 238.243 413.09C237.647 409.121 237.927 405.07 239.064 401.221C240.117 397.647 241.043 393.882 243.275 390.876C245.507 387.871 250.089 386.234 253.816 386.178Z" fill="#FF5271"/>
<g opacity="0.1">
<path opacity="0.1" d="M251.366 335.859C249.261 333.225 246.58 330.851 243.289 330.191C240.615 329.65 237.843 330.304 235.12 330.086C232.713 329.896 230.397 329.025 228.004 328.681C225.833 328.447 223.639 328.53 221.492 328.927C219.454 329.23 217.462 329.787 215.562 330.584C214.536 331.044 213.556 331.602 212.636 332.249C214.327 331.591 216.085 331.12 217.878 330.844C220.023 330.447 222.214 330.364 224.383 330.598C226.783 330.907 229.092 331.771 231.506 331.961C234.222 332.179 236.994 331.533 239.675 332.066C242.966 332.726 245.661 335.107 247.745 337.741C249.689 340.185 251.31 343.324 250.489 346.344C250.054 347.931 249.043 349.322 248.77 350.958C248.496 352.594 248.426 353.262 247.303 354.722C245.863 356.596 244.123 358.217 242.152 359.519C242.692 359.266 243.247 359.013 243.773 358.739C246.568 357.303 249.01 355.264 250.924 352.77C252.04 351.309 252.103 350.663 252.384 349.006C252.665 347.348 253.668 345.986 254.103 344.392C254.931 341.449 253.303 338.31 251.366 335.859Z" fill="black"/>
<path opacity="0.1" d="M238.664 361.851C238.955 361.549 239.272 361.274 239.612 361.029C237.991 361.815 236.285 362.504 235.043 363.838C233.492 365.46 232.938 367.806 232.854 370.053C232.769 372.301 233.169 374.534 233.219 376.774C233.288 379.764 232.785 382.739 231.738 385.539C230.811 388.018 229.471 390.315 228.425 392.752C227.211 395.561 226.397 398.552 225.303 401.425C221.794 410.493 215.565 418.251 207.471 423.631C207.429 423.723 207.393 423.821 207.351 423.912C217.224 418.605 224.873 409.939 228.917 399.48C230.011 396.607 230.826 393.622 232.047 390.799C233.092 388.369 234.433 386.066 235.359 383.587C236.406 380.789 236.909 377.816 236.84 374.829C236.784 372.582 236.412 370.348 236.475 368.101C236.538 365.854 237.113 363.48 238.664 361.851Z" fill="black"/>
</g>
<defs>
<linearGradient id="paint0_linear" x1="231.183" y1="613.911" x2="231.183" y2="326.041" gradientUnits="userSpaceOnUse">
<stop stop-color="#808080" stop-opacity="0.25"/>
<stop offset="0.54" stop-color="#808080" stop-opacity="0.12"/>
<stop offset="1" stop-color="#808080" stop-opacity="0.1"/>
</linearGradient>
</defs>
</svg>
