<svg width="155" height="133" viewBox="0 0 155 133" fill="none" xmlns="http://www.w3.org/2000/svg">
<path opacity="0.1" d="M94.2667 9.63616C70.2132 5.25517 48.116 -6.31524 26.9997 6.00003C2.09743 20.5233 19.8756 41.386 23.2784 69.9962C25.9261 92.2575 26.5892 107.376 40.9152 124.629C59.4752 146.98 85.2677 114.891 113.999 110.5C143.029 106.063 140.253 94.7135 149.499 78.5C161.024 58.2894 135.999 41 135.999 41C135.999 41 118.441 14.0392 94.2667 9.63616Z" fill="#175190"/>
<path d="M14.7944 30.5413C17.6089 30.5413 19.8906 28.2681 19.8906 25.4639C19.8906 22.6598 17.6089 20.3865 14.7944 20.3865C11.9799 20.3865 9.69824 22.6598 9.69824 25.4639C9.69824 28.2681 11.9799 30.5413 14.7944 30.5413Z" fill="#175190"/>
<path d="M140.242 110.716C143.056 110.716 145.338 108.443 145.338 105.639C145.338 102.835 143.056 100.562 140.242 100.562C137.427 100.562 135.146 102.835 135.146 105.639C135.146 108.443 137.427 110.716 140.242 110.716Z" fill="#175190"/>
<path d="M141.293 32.7885H18.0623V88.5678H141.293V32.7885Z" fill="#3F3D56"/>
<path d="M139.26 34.814H20.0953V85.4516H139.26V34.814Z" fill="#FF5271"/>
<path d="M127.141 83.0366H115.568V86.9318H127.141V83.0366Z" fill="#3F3D56"/>
<path d="M114.943 85.9969H106.498V87.0876H114.943V85.9969Z" fill="#175190"/>
<path d="M29.7911 53.9784H75.2991L82.3545 57.4029L93.5961 62.8594L100.946 49.1483H121.745" stroke="#E1F0FF" stroke-width="2" stroke-miterlimit="10"/>
<path d="M47.6854 53.9784L51.0594 61.9246H59.3478" stroke="#E1F0FF" stroke-width="2" stroke-miterlimit="10"/>
<path d="M60.3341 53.9784L71.8586 47.7461H79.9906" stroke="#E1F0FF" stroke-width="2" stroke-miterlimit="10"/>
<path d="M47.619 55.3806C48.3963 55.3806 49.0265 54.7528 49.0265 53.9783C49.0265 53.2039 48.3963 52.576 47.619 52.576C46.8417 52.576 46.2115 53.2039 46.2115 53.9783C46.2115 54.7528 46.8417 55.3806 47.619 55.3806Z" fill="#175190"/>
<path d="M60.7554 55.3806C61.5327 55.3806 62.1628 54.7528 62.1628 53.9783C62.1628 53.2039 61.5327 52.576 60.7554 52.576C59.978 52.576 59.3479 53.2039 59.3479 53.9783C59.3479 54.7528 59.978 55.3806 60.7554 55.3806Z" fill="#175190"/>
<path d="M82.3363 57.4062L83.2746 71.2731H91.4066" stroke="#E1F0FF" stroke-width="2" stroke-miterlimit="10"/>
<path d="M97.9983 54.6473L89.0609 47.7461H97.5057" stroke="#E1F0FF" stroke-width="2" stroke-miterlimit="10"/>
<path d="M112.761 49.1483L121.432 56.0039H129.564" stroke="#E1F0FF" stroke-width="2" stroke-miterlimit="10"/>
<path d="M82.3363 58.8084C83.1136 58.8084 83.7438 58.1806 83.7438 57.4061C83.7438 56.6317 83.1136 56.0038 82.3363 56.0038C81.559 56.0038 80.9288 56.6317 80.9288 57.4061C80.9288 58.1806 81.559 58.8084 82.3363 58.8084Z" fill="#175190"/>
<path d="M112.675 50.5506C113.452 50.5506 114.082 49.9228 114.082 49.1483C114.082 48.3739 113.452 47.746 112.675 47.746C111.898 47.746 111.267 48.3739 111.267 49.1483C111.267 49.9228 111.898 50.5506 112.675 50.5506Z" fill="#175190"/>
<path d="M97.9748 56.0038C98.7522 56.0038 99.3823 55.376 99.3823 54.6016C99.3823 53.8271 98.7522 53.1993 97.9748 53.1993C97.1975 53.1993 96.5674 53.8271 96.5674 54.6016C96.5674 55.376 97.1975 56.0038 97.9748 56.0038Z" fill="#175190"/>
<path d="M51.2158 63.171H59.3478" stroke="#E1F0FF" stroke-width="2" stroke-miterlimit="10"/>
<path d="M126.6 23.0672C127.874 23.0672 128.907 22.0379 128.907 20.7682C128.907 19.4984 127.874 18.4691 126.6 18.4691C125.325 18.4691 124.292 19.4984 124.292 20.7682C124.292 22.0379 125.325 23.0672 126.6 23.0672Z" stroke="#3F3D56" stroke-width="2" stroke-miterlimit="10"/>
<path opacity="0.5" d="M23.7703 129C36.8984 129 47.5408 127.047 47.5408 124.637C47.5408 122.228 36.8984 120.275 23.7703 120.275C10.6423 120.275 -0.00012207 122.228 -0.00012207 124.637C-0.00012207 127.047 10.6423 129 23.7703 129Z" fill="#175190"/>
<path d="M40.0952 85.916L35.8545 88.0476L36.1289 88.5921L40.3695 86.4605L40.0952 85.916Z" fill="#175190"/>
<path d="M39.4057 81.9512L39.2152 83.09C39.2152 83.09 39.501 90.9672 37.4053 88.4997C35.3097 86.0321 36.7385 82.7104 36.7385 82.7104L37.3101 81.7614L39.4057 81.9512Z" fill="#FBBEBE"/>
<path d="M27.2128 45.5075C27.2128 45.5075 26.8318 49.4935 26.6413 49.6833C26.4507 49.8732 29.499 53.4796 29.499 53.4796L32.1661 51.012C32.1661 51.012 31.9756 47.4056 32.5472 46.6464C33.1187 45.8871 27.2128 45.5075 27.2128 45.5075Z" fill="#FBBEBE"/>
<path opacity="0.1" d="M27.2128 45.5075C27.2128 45.5075 26.8318 49.4935 26.6413 49.6833C26.4507 49.8732 29.499 53.4796 29.499 53.4796L32.1661 51.012C32.1661 51.012 31.9756 47.4056 32.5472 46.6464C33.1187 45.8871 27.2128 45.5075 27.2128 45.5075Z" fill="black"/>
<path d="M20.164 118.205V121.622L18.8303 121.812L16.9252 121.242L17.4967 117.636L20.164 118.205Z" fill="#3F3D56"/>
<path d="M18.4493 119.913C18.4493 119.913 17.8778 118.395 16.9252 118.585C15.9726 118.774 15.7821 119.913 15.7821 119.913C15.7821 119.913 15.0201 122.76 13.877 123.71C12.7339 124.659 11.5908 127.126 13.877 127.506C16.1631 127.885 18.0683 126.936 18.0683 126.747C18.0683 126.557 18.6398 125.418 19.5924 125.228C20.5449 125.038 21.307 124.848 21.307 124.089C21.307 123.33 20.7355 122.571 20.7355 122.571C20.7355 122.571 20.5449 118.97 20.1639 119.442C19.9004 119.814 19.7068 120.231 19.5924 120.673L18.4493 119.913Z" fill="#2F2E41"/>
<path d="M28.3559 116.497L27.5939 119.344L29.499 119.724L30.4515 118.775L30.642 116.307L28.3559 116.497Z" fill="#3F3D56"/>
<path d="M28.1654 118.964C28.1654 118.964 28.9275 118.395 29.3085 118.395H29.88C29.88 118.395 29.88 117.066 30.8326 117.066C31.7852 117.066 31.5947 118.015 31.5947 118.015C31.5947 118.015 33.6903 121.242 34.2618 121.811C34.8334 122.381 37.8816 124.089 35.4049 124.848C32.9283 125.608 31.2136 125.608 30.0706 124.279C30.0706 124.279 28.9275 123.71 28.1654 123.71C27.4034 123.71 26.4508 123.33 26.4508 122.76C26.4508 122.191 27.0223 121.052 27.0223 121.052C27.0223 121.052 27.4034 117.636 27.5939 118.015C27.7844 118.395 28.1654 118.964 28.1654 118.964Z" fill="#2F2E41"/>
<path d="M19.9734 72.8403V79.104C19.9734 79.104 17.8777 91.2519 17.8777 95.238C17.8777 99.224 14.639 118.205 16.1631 118.585C17.6872 118.964 21.307 119.534 21.4975 118.964C21.688 118.395 23.0216 100.363 23.2121 100.173C23.4026 99.9832 27.4034 84.9882 27.4034 84.9882L28.1654 85.178L28.5465 102.261C28.5465 102.261 26.6413 117.636 27.5939 117.636C28.5465 117.636 32.5472 117.446 32.5472 116.307C32.5472 115.168 34.6429 94.0991 34.6429 94.0991C34.6429 94.0991 37.1196 77.3957 36.167 75.6874C35.2144 73.9791 35.2144 73.0301 35.2144 73.0301L19.9734 72.8403Z" fill="#2F2E41"/>
<path d="M30.3563 48.4495C32.4606 48.4495 34.1665 46.7499 34.1665 44.6533C34.1665 42.5567 32.4606 40.8571 30.3563 40.8571C28.2519 40.8571 26.546 42.5567 26.546 44.6533C26.546 46.7499 28.2519 48.4495 30.3563 48.4495Z" fill="#FBBEBE"/>
<path d="M29.499 51.2018C29.499 51.2018 27.1176 49.2088 26.9271 48.4496C26.9271 48.4496 25.6888 49.6834 25.6888 49.8732C25.6888 50.063 20.3544 50.6324 19.0208 52.1509C17.6872 53.6694 16.5441 56.8962 16.5441 56.8962L19.7829 62.9701C19.7829 62.9701 19.9734 66.3867 19.9734 66.7663C19.9734 67.146 19.0208 73.2199 19.4018 73.4097C19.7829 73.5995 23.5931 75.4976 26.8318 75.118C30.0706 74.7384 33.3093 74.169 34.2619 74.169C35.2144 74.169 35.9765 74.5486 35.9765 74.169C35.9765 73.7893 35.4049 73.0301 35.4049 72.6505C35.4049 72.2709 35.2144 71.3218 35.2144 70.7524C35.2144 70.1829 34.8334 69.2339 34.8334 68.4746C34.8334 67.7154 39.0247 57.4656 39.0247 57.4656C39.0247 57.4656 38.8342 54.2388 35.786 52.7203C32.7377 51.2018 32.3567 50.6324 32.3567 50.6324C32.3567 50.6324 32.2973 49.4935 32.1365 49.4935C31.9757 49.4935 31.4042 51.2018 29.88 51.3917L29.499 51.2018Z" fill="#D0CDE1"/>
<path d="M19.2113 76.4467L20.545 78.5346L23.9742 77.7753L21.4975 74.9282L19.2113 76.4467Z" fill="#FBBEBE"/>
<path d="M37.8816 55.9471L39.0247 57.4656C39.0247 57.4656 41.3108 68.4746 40.9298 72.4606C40.5488 76.4467 40.1677 79.4836 40.1677 79.4836C40.1677 79.4836 40.9298 82.3308 40.3583 82.3308C39.7867 82.3308 36.3575 82.5206 36.3575 81.9512C36.3575 81.3817 36.7385 77.7753 36.7385 77.7753L35.7859 69.4237L33.6903 66.5765L37.8816 55.9471Z" fill="#D0CDE1"/>
<path d="M27.7684 42.8103C28.002 42.7117 28.272 42.7917 28.5221 42.7496C28.8158 42.7002 29.0786 42.4834 29.3753 42.5107C29.5158 42.5367 29.6524 42.5809 29.7814 42.6421C29.8462 42.6725 29.9165 42.6894 29.988 42.6919C30.0595 42.6945 30.1308 42.6826 30.1975 42.657C30.2294 42.6423 30.2575 42.6207 30.2799 42.5938C30.3023 42.5669 30.3184 42.5353 30.3271 42.5015C30.3358 42.4676 30.3368 42.4322 30.33 42.3979C30.3232 42.3636 30.3089 42.3312 30.288 42.3031C30.539 42.2811 30.7762 42.1793 30.9648 42.0129C31.0023 41.974 31.0459 41.9414 31.0939 41.9164C31.1498 41.9018 31.2081 41.8989 31.2652 41.9077C31.3223 41.9166 31.377 41.9371 31.4258 41.9679L31.8618 42.1681C31.96 42.2026 32.0463 42.2642 32.1109 42.3456C32.1627 42.4262 32.1729 42.5345 32.2463 42.5962C32.34 42.6749 32.4801 42.6364 32.6024 42.6441C32.7135 42.6548 32.8167 42.7058 32.8925 42.7874C32.9683 42.869 33.0114 42.9754 33.0137 43.0865C33.012 43.214 32.9654 43.3704 33.0666 43.4484C33.1253 43.4936 33.2086 43.4864 33.2774 43.5142C33.4556 43.5863 33.4563 43.8334 33.4299 44.0232C33.4036 44.213 33.4166 44.4634 33.5998 44.5219C33.7288 44.563 33.8606 44.4753 33.9945 44.4557C34.1967 44.4262 34.3837 44.5522 34.5636 44.6485C34.7436 44.7449 34.9826 44.8099 35.1386 44.6785C35.2837 44.5561 35.2744 44.3323 35.2345 44.1472C35.1772 43.8817 35.0831 43.6254 34.9549 43.3857C34.9075 43.3152 34.8796 43.2335 34.8739 43.1488C34.8848 43.0892 34.9082 43.0325 34.9427 42.9825C34.9771 42.9326 35.0218 42.8905 35.0738 42.859C35.2942 42.6853 35.5478 42.5105 35.6192 42.2397C35.6716 42.0409 35.6127 41.8313 35.6172 41.6258C35.6228 41.3758 35.7225 41.1269 35.6757 40.8812C35.5909 40.4359 35.0935 40.2216 34.7724 39.9005C34.3311 39.4593 34.1879 38.7536 33.6671 38.409C33.2505 38.1333 32.7056 38.1662 32.2312 38.0084C31.7101 37.8352 31.2906 37.4371 30.7765 37.2439C30.4959 37.1409 30.1959 37.1009 29.898 37.1269C29.6001 37.153 29.3116 37.2443 29.0534 37.3945C28.9 37.5078 28.7288 37.595 28.5467 37.6524C28.3934 37.6701 28.2385 37.6683 28.0856 37.6471C27.7818 37.6315 27.479 37.6937 27.2062 37.8279C27.1018 37.8694 27.0149 37.9454 26.9599 38.0431C26.8678 38.2468 27.0015 38.5652 26.7998 38.6625C26.7057 38.7079 26.5947 38.6645 26.4902 38.6667C26.287 38.6712 26.1307 38.8473 26.034 39.0255C25.9586 39.2138 25.8504 39.3873 25.7143 39.538C25.4659 39.7548 25.0147 39.7906 24.9498 40.1131C24.9486 40.2497 24.9564 40.3861 24.9731 40.5217C24.9543 40.8075 24.6473 41.0247 24.6633 41.3107C24.6818 41.6406 25.1025 41.8018 25.2149 42.1126C25.3006 42.3493 25.1879 42.6052 25.1103 42.8446C25.0328 43.084 25.0094 43.3909 25.2097 43.5442C25.2882 43.6043 25.3891 43.6289 25.4692 43.6869C25.6764 43.8371 25.6738 44.1401 25.6508 44.3943C25.6375 44.4471 25.6374 44.5023 25.6506 44.5551C25.6637 44.6079 25.6896 44.6567 25.726 44.6972C25.7603 44.7178 25.7985 44.731 25.8382 44.7357C25.8779 44.7405 25.9182 44.7367 25.9563 44.7247C26.0807 44.6947 26.1977 44.6396 26.2999 44.5629C26.4022 44.4862 26.4877 44.3895 26.5512 44.2788C26.6179 44.1688 26.6313 44.072 26.7525 44.0136C26.8348 43.9741 26.9346 44.0094 27.0184 43.958C27.4167 43.7137 27.2796 43.0167 27.7684 42.8103Z" fill="#2F2E41"/>
<path d="M17.1157 56.3267L16.5442 56.8961C16.5442 56.8961 13.1149 67.1459 14.258 69.4236C15.4011 71.7013 17.6872 77.3957 18.4493 77.2058C19.2113 77.016 21.8785 75.3077 21.8785 75.1179C21.8785 74.9281 18.6398 69.6134 18.6398 69.6134C18.6398 69.6134 18.2588 68.4745 18.4493 68.2847C18.6398 68.0949 18.6398 68.2847 18.4493 67.9051C18.2588 67.5255 18.2588 67.9051 18.6398 67.5255C19.0208 67.1459 19.0208 67.1459 19.0208 66.9561C19.0208 66.7663 20.1639 62.021 20.1639 62.021L17.1157 56.3267Z" fill="#D0CDE1"/>
<path d="M20.0686 78.6294L24.26 77.3008L24.8315 78.6294L20.2592 79.5784L20.0686 78.6294Z" fill="#2F2E41"/>
<path opacity="0.1" d="M20.0686 78.6294L24.26 77.3008L24.8315 78.6294L20.2592 79.5784L20.0686 78.6294Z" fill="black"/>
<path opacity="0.1" d="M25.7839 49.9681L29.0227 52.6254L29.4038 52.0559L25.7839 49.9681Z" fill="black"/>
<path opacity="0.1" d="M32.2614 50.7273L29.9753 52.0559L30.1658 52.6254L32.2614 50.7273Z" fill="black"/>
</svg>
